<svg width="32" height="32" viewBox="0 0 32 32" fill="none" xmlns="http://www.w3.org/2000/svg">
<rect width="32" height="32" rx="16" fill="#6F85D5"/>
<path d="M22.475 10.1875C24.5375 13.25 25.5687 16.6875 25.1937 20.6562C25.1937 20.6562 25.1937 20.6875 25.1625 20.6875C23.7875 21.7188 22.225 22.5 20.5687 23C20.5375 23 20.5062 23 20.5062 23C20.1625 22.5 19.85 22 19.5687 21.4688V21.4375C19.5687 21.4062 19.5687 21.4062 19.6 21.375C20.1 21.1875 20.5687 20.9688 21.0375 20.6875C21.0687 20.6875 21.0687 20.6875 21.0687 20.6562C21.0687 20.625 21.0687 20.625 21.0375 20.5938C20.9437 20.5312 20.85 20.4688 20.7562 20.375H20.725H20.6937C17.725 21.75 14.475 21.75 11.475 20.375C11.4437 20.375 11.4437 20.375 11.4437 20.375C11.4125 20.375 11.4125 20.375 11.4125 20.375C11.3187 20.4688 11.225 20.5312 11.1312 20.5938C11.1 20.625 11.1 20.625 11.1 20.6562C11.1 20.6875 11.1 20.6875 11.1312 20.6875C11.5687 20.9688 12.0687 21.1875 12.5687 21.375C12.5687 21.4062 12.6 21.4062 12.6 21.4375V21.4688C12.3187 22 12.0062 22.5 11.6625 23C11.6312 23 11.6312 23 11.6 23C9.9125 22.5 8.35 21.7188 7.00625 20.6875C6.975 20.6875 6.975 20.6562 6.975 20.6562C6.6625 17.2188 7.31875 13.75 9.69375 10.1875C9.69375 10.1875 9.69375 10.1875 9.725 10.1875C10.8812 9.65625 12.1625 9.25 13.4437 9.03125C13.4437 9.03125 13.4437 9.03125 13.475 9.03125H13.5062C13.6937 9.34375 13.85 9.6875 13.975 10C14.6625 9.90625 15.35 9.84375 16.0687 9.84375C16.7875 9.84375 17.5062 9.90625 18.1937 10C18.3187 9.6875 18.475 9.34375 18.6625 9.03125L18.6937 9C18.6937 9 18.6937 9.03125 18.725 9.03125C20.0062 9.25 21.2875 9.65625 22.4437 10.1875C22.475 10.1875 22.475 10.1875 22.475 10.1875ZM13.0375 18.5625C13.9437 18.5625 14.6937 17.7188 14.6937 16.7188C14.6937 15.6875 13.975 14.875 13.0375 14.875C12.1312 14.875 11.3812 15.6875 11.3812 16.7188C11.3812 17.7188 12.1312 18.5625 13.0375 18.5625ZM19.1312 18.5625C20.0687 18.5625 20.7875 17.7188 20.7875 16.7188C20.8187 15.6875 20.0687 14.875 19.1312 14.875C18.225 14.875 17.5062 15.6875 17.5062 16.7188C17.5062 17.7188 18.225 18.5625 19.1312 18.5625Z" fill="white"/>
</svg>
