<svg width="8" height="8" viewBox="0 0 8 8" fill="none" xmlns="http://www.w3.org/2000/svg">
<path fill-rule="evenodd" clip-rule="evenodd" d="M1.62499 3.56264C1.62507 2.92791 1.83984 2.31188 2.2344 1.81469C2.62896 1.31749 3.18009 0.968382 3.79821 0.824109C4.41632 0.679836 5.06505 0.748885 5.63895 1.02003C6.21284 1.29118 6.67815 1.74848 6.95921 2.31758C7.24028 2.88668 7.32057 3.53412 7.18705 4.15465C7.05353 4.77517 6.71403 5.33228 6.22376 5.7354C5.73349 6.13853 5.12127 6.36397 4.48665 6.37506C3.85202 6.38616 3.2323 6.18226 2.72824 5.79651L2.05774 6.46664L2.59249 7.00139C2.6283 7.03598 2.65687 7.07736 2.67652 7.12311C2.69618 7.16886 2.70652 7.21807 2.70695 7.26786C2.70739 7.31765 2.6979 7.36703 2.67904 7.41312C2.66019 7.45921 2.63234 7.50108 2.59713 7.53629C2.56192 7.5715 2.52006 7.59934 2.47397 7.6182C2.42788 7.63705 2.3785 7.64654 2.32871 7.64611C2.27892 7.64567 2.22971 7.63533 2.18396 7.61568C2.13821 7.59602 2.09683 7.56745 2.06224 7.53164L1.52749 6.99726L0.732486 7.79226C0.662121 7.86258 0.566705 7.90206 0.467229 7.90203C0.367752 7.90199 0.272364 7.86244 0.202049 7.79208C0.131733 7.72171 0.09225 7.62629 0.0922852 7.52682C0.0923203 7.42734 0.131871 7.33195 0.202236 7.26164L0.997236 6.46664L0.471111 5.94051C0.435295 5.90592 0.406726 5.86454 0.387073 5.81879C0.36742 5.77304 0.357075 5.72383 0.356642 5.67404C0.356209 5.62425 0.365698 5.57487 0.384553 5.52878C0.403408 5.48269 0.431253 5.44082 0.466463 5.40561C0.501673 5.3704 0.543542 5.34256 0.589628 5.3237C0.635715 5.30485 0.685094 5.29536 0.734887 5.29579C0.784679 5.29623 0.833886 5.30657 0.879638 5.32622C0.925389 5.34588 0.966769 5.37445 1.00136 5.41026L1.52749 5.93639L2.19874 5.26514C1.82568 4.77606 1.62405 4.17775 1.62499 3.56264ZM4.43749 1.50014C3.89048 1.50014 3.36587 1.71744 2.97908 2.10423C2.59228 2.49102 2.37499 3.01563 2.37499 3.56264C2.37499 4.10965 2.59228 4.63425 2.97908 5.02105C3.36587 5.40784 3.89048 5.62514 4.43749 5.62514C4.9845 5.62514 5.5091 5.40784 5.89589 5.02105C6.28269 4.63425 6.49999 4.10965 6.49999 3.56264C6.49999 3.01563 6.28269 2.49102 5.89589 2.10423C5.5091 1.71744 4.9845 1.50014 4.43749 1.50014Z" fill="white"/>
</svg>
