<svg width="1920" height="314" viewBox="0 0 1920 314" fill="none" xmlns="http://www.w3.org/2000/svg">
<rect width="1920" height="313.73" fill="#2A2C31"/>
<g opacity="0.66">
<path d="M1528.6 158.64C1514.87 158.64 1504.62 156.997 1497.86 153.71C1491.19 150.327 1487.75 144.382 1487.56 135.875C1486.3 139.452 1485.87 142.787 1486.26 145.88C1486.74 148.973 1487.51 152.018 1488.58 155.015C1478.23 155.305 1469.63 155.595 1462.77 155.885C1455.9 156.272 1449.67 156.417 1444.06 156.32C1442.61 148.587 1441.79 140.95 1441.6 133.41C1441.5 125.773 1442.08 117.702 1443.34 109.195C1448.65 109.195 1453.97 109.727 1459.29 110.79C1464.6 111.853 1469.63 113.352 1474.37 115.285C1479.1 117.122 1483.16 119.393 1486.55 122.1L1489.45 119.055C1486.16 116.445 1482.58 114.27 1478.72 112.53C1474.95 110.693 1471.13 109.147 1467.26 107.89C1462.33 106.15 1457.84 103.927 1453.78 101.22C1449.81 98.5133 1446.67 95.13 1444.35 91.07C1442.03 87.01 1440.87 82.1767 1440.87 76.57C1440.87 69.61 1442.47 63.3267 1445.66 57.72C1448.85 52.0167 1454.07 47.5217 1461.31 44.235C1468.66 40.8517 1478.52 39.16 1490.9 39.16C1503.17 39.16 1512.55 40.9 1519.03 44.38C1525.5 47.7633 1528.84 54.0467 1529.03 63.23C1530.38 59.5567 1530.82 56.125 1530.34 52.935C1529.85 49.745 1529.08 46.3617 1528.02 42.785C1534.98 42.6883 1540.78 42.5917 1545.42 42.495C1550.06 42.3017 1554.16 42.1083 1557.74 41.915C1561.32 41.7217 1564.94 41.625 1568.62 41.625C1570.07 48.585 1570.84 56.125 1570.94 64.245C1571.13 72.2683 1570.6 80.485 1569.34 88.895C1563.83 88.7983 1558.9 88.315 1554.55 87.445C1550.3 86.4783 1546.33 85.0767 1542.66 83.24C1538.99 81.4033 1535.22 79.1317 1531.35 76.425L1528.74 79.76C1532.41 82.4667 1536.18 84.7867 1540.05 86.72C1543.92 88.5567 1547.54 90.2483 1550.93 91.795C1555.95 94.0183 1560.21 96.4833 1563.69 99.19C1567.17 101.897 1569.82 105.183 1571.66 109.05C1573.59 112.917 1574.56 117.75 1574.56 123.55C1574.56 131.573 1573.16 137.953 1570.36 142.69C1567.65 147.427 1564.02 150.955 1559.48 153.275C1554.94 155.498 1549.96 156.948 1544.55 157.625C1539.23 158.302 1533.91 158.64 1528.6 158.64ZM1580.3 156.465C1579.43 154.435 1578.75 151.873 1578.27 148.78C1577.79 145.687 1577.5 142.497 1577.4 139.21C1577.3 135.827 1577.4 132.588 1577.69 129.495C1578.08 126.402 1578.61 123.84 1579.29 121.81C1580.74 121.23 1582.14 120.263 1583.49 118.91C1584.94 117.46 1586.15 115.188 1587.12 112.095C1588.08 108.905 1588.57 104.458 1588.57 98.755C1588.57 92.5683 1587.99 87.9283 1586.83 84.835C1585.76 81.645 1584.46 79.5183 1582.91 78.455C1581.46 77.295 1580.16 76.715 1579 76.715C1578.13 74.975 1577.5 72.6067 1577.11 69.61C1576.72 66.6133 1576.53 63.4233 1576.53 60.04C1576.63 56.56 1576.92 53.225 1577.4 50.035C1577.88 46.7483 1578.61 43.945 1579.58 41.625C1586.73 41.915 1593.16 41.9633 1598.86 41.77C1604.66 41.5767 1610.41 41.2867 1616.12 40.9C1621.92 40.5133 1628.2 40.175 1634.97 39.885C1641.83 39.4983 1649.9 39.305 1659.18 39.305C1672.81 39.305 1684.31 40.5133 1693.69 42.93C1703.07 45.25 1710.17 49.5517 1715.01 55.835C1719.94 62.0217 1722.4 70.8667 1722.4 82.37C1722.4 92.3267 1720.52 100.302 1716.75 106.295C1713.07 112.288 1707.76 116.638 1700.8 119.345C1693.84 121.955 1685.47 123.26 1675.71 123.26C1669.52 123.26 1664.59 122.777 1660.92 121.81C1657.25 120.747 1653.86 118.427 1650.77 114.85L1647.73 117.605C1650.24 120.602 1653.28 122.922 1656.86 124.565C1660.44 126.112 1664.88 126.982 1670.2 127.175C1671.07 129.882 1671.6 132.975 1671.8 136.455C1672.09 139.935 1671.99 143.415 1671.51 146.895C1671.12 150.375 1670.39 153.517 1669.33 156.32C1664.59 155.933 1658.02 155.45 1649.61 154.87C1641.3 154.29 1631.78 154.048 1621.05 154.145C1615.63 154.145 1610.32 154.29 1605.1 154.58C1599.88 154.87 1595.09 155.16 1590.74 155.45C1586.49 155.837 1583.01 156.175 1580.3 156.465ZM1647.73 92.52H1656.57V82.805H1647.73V92.52ZM1474.37 279.465C1473.59 277.435 1472.96 274.873 1472.48 271.78C1472 268.687 1471.71 265.497 1471.61 262.21C1471.61 258.827 1471.71 255.588 1471.9 252.495C1472.19 249.402 1472.67 246.84 1473.35 244.81C1476.44 244.037 1478.81 241.91 1480.46 238.43C1482.1 234.853 1482.92 228.812 1482.92 220.305V209.865H1478.28C1479.15 217.212 1479.01 224.462 1477.85 231.615C1474.08 232.388 1470.5 232.92 1467.12 233.21C1463.73 233.403 1460.16 233.403 1456.39 233.21C1452.62 232.92 1448.22 232.388 1443.19 231.615C1442.61 228.232 1442.18 224.075 1441.89 219.145C1441.6 214.118 1441.45 208.85 1441.45 203.34C1441.45 197.733 1441.55 192.32 1441.74 187.1C1441.93 181.88 1442.22 177.288 1442.61 173.325C1443 169.265 1443.43 166.317 1443.92 164.48C1449.62 164.48 1458.22 164.867 1469.73 165.64C1481.23 166.317 1495.87 166.655 1513.66 166.655C1525.74 166.655 1536.09 166.462 1544.69 166.075C1553.29 165.688 1560.54 165.35 1566.44 165.06C1572.43 164.673 1577.36 164.48 1581.23 164.48C1581.71 166.607 1582.15 169.797 1582.54 174.05C1582.92 178.207 1583.21 182.943 1583.41 188.26C1583.6 193.48 1583.7 198.845 1583.7 204.355C1583.7 209.768 1583.55 214.892 1583.26 219.725C1582.97 224.462 1582.54 228.425 1581.96 231.615C1576.93 232.388 1572.58 232.92 1568.91 233.21C1565.23 233.403 1561.66 233.403 1558.18 233.21C1554.79 232.92 1550.93 232.388 1546.58 231.615C1545.42 224.558 1545.27 217.357 1546.14 210.01H1541.5V220.305C1541.5 226.008 1541.98 230.552 1542.95 233.935C1544.01 237.318 1545.37 239.832 1547.01 241.475C1548.65 243.118 1550.49 244.23 1552.52 244.81C1553.2 246.84 1553.63 249.402 1553.83 252.495C1554.12 255.588 1554.21 258.827 1554.12 262.21C1554.12 265.497 1553.87 268.687 1553.39 271.78C1552.91 274.873 1552.28 277.435 1551.51 279.465C1547.25 278.982 1541.89 278.45 1535.41 277.87C1529.03 277.387 1521.54 277.145 1512.94 277.145C1503.95 277.145 1496.31 277.387 1490.03 277.87C1483.84 278.45 1478.62 278.982 1474.37 279.465ZM1582.54 279.465C1581.77 277.435 1581.14 274.873 1580.66 271.78C1580.17 268.687 1579.88 265.497 1579.79 262.21C1579.79 258.827 1579.88 255.588 1580.08 252.495C1580.37 249.402 1580.85 246.84 1581.53 244.81C1584.62 244.133 1586.99 242.732 1588.63 240.605C1590.37 238.382 1591.63 235.723 1592.4 232.63C1593.18 229.44 1593.8 226.153 1594.29 222.77C1594.87 219.193 1595.25 215.762 1595.45 212.475C1595.64 209.092 1595.25 206.24 1594.29 203.92C1593.42 201.6 1591.48 200.198 1588.49 199.715C1587.62 197.975 1586.99 195.607 1586.6 192.61C1586.22 189.613 1586.02 186.423 1586.02 183.04C1586.12 179.56 1586.41 176.225 1586.89 173.035C1587.38 169.748 1588.1 166.945 1589.07 164.625C1593.03 165.012 1597.91 165.398 1603.71 165.785C1609.51 166.075 1617.25 166.22 1626.91 166.22C1633.49 166.22 1640.59 165.978 1648.23 165.495C1655.96 164.915 1663.89 164.383 1672.01 163.9C1680.13 163.417 1688.05 163.175 1695.79 163.175C1702.36 163.175 1707.53 164.577 1711.3 167.38C1715.17 170.087 1718.07 173.663 1720 178.11C1721.94 182.557 1723.19 187.342 1723.77 192.465C1724.35 197.588 1724.59 202.615 1724.5 207.545C1724.5 212.378 1724.5 216.583 1724.5 220.16C1724.5 225.863 1725.03 230.407 1726.09 233.79C1727.16 237.077 1728.56 239.542 1730.3 241.185C1732.13 242.828 1734.07 244.037 1736.1 244.81C1736.77 246.84 1737.21 249.402 1737.4 252.495C1737.69 255.588 1737.79 258.827 1737.69 262.21C1737.69 265.497 1737.45 268.687 1736.97 271.78C1736.48 274.873 1735.86 277.435 1735.08 279.465C1731.12 279.078 1726.33 278.595 1720.73 278.015C1715.22 277.435 1708.55 277.145 1700.72 277.145C1692.69 277.145 1685.11 277.435 1677.95 278.015C1670.9 278.595 1665.39 279.078 1661.42 279.465C1661.04 277.435 1660.7 274.873 1660.41 271.78C1660.12 268.687 1659.92 265.497 1659.83 262.21C1659.73 258.827 1659.73 255.588 1659.83 252.495C1659.92 249.402 1660.12 246.84 1660.41 244.81H1664.47V237.56H1651.85V244.81H1655.91C1656.3 246.84 1656.54 249.402 1656.64 252.495C1656.83 255.588 1656.88 258.827 1656.78 262.21C1656.69 265.497 1656.49 268.687 1656.2 271.78C1655.91 274.873 1655.48 277.435 1654.9 279.465C1652.29 279.175 1649.48 278.837 1646.49 278.45C1643.59 278.16 1640.16 277.87 1636.19 277.58C1632.33 277.29 1627.54 277.145 1621.84 277.145C1612.85 277.145 1605.11 277.387 1598.64 277.87C1592.16 278.45 1586.8 278.982 1582.54 279.465ZM1652.87 216.245H1663.31V209.43H1652.87V216.245Z" fill="black" fill-opacity="0.14"/>
<path d="M1536.6 166.64C1522.87 166.64 1512.62 164.997 1505.86 161.71C1499.19 158.327 1495.75 152.382 1495.56 143.875C1494.3 147.452 1493.87 150.787 1494.26 153.88C1494.74 156.973 1495.51 160.018 1496.58 163.015C1486.23 163.305 1477.63 163.595 1470.77 163.885C1463.9 164.272 1457.67 164.417 1452.06 164.32C1450.61 156.587 1449.79 148.95 1449.6 141.41C1449.5 133.773 1450.08 125.702 1451.34 117.195C1456.65 117.195 1461.97 117.727 1467.29 118.79C1472.6 119.853 1477.63 121.352 1482.37 123.285C1487.1 125.122 1491.16 127.393 1494.55 130.1L1497.45 127.055C1494.16 124.445 1490.58 122.27 1486.72 120.53C1482.95 118.693 1479.13 117.147 1475.26 115.89C1470.33 114.15 1465.84 111.927 1461.78 109.22C1457.81 106.513 1454.67 103.13 1452.35 99.07C1450.03 95.01 1448.87 90.1767 1448.87 84.57C1448.87 77.61 1450.47 71.3267 1453.66 65.72C1456.85 60.0167 1462.07 55.5217 1469.31 52.235C1476.66 48.8517 1486.52 47.16 1498.9 47.16C1511.17 47.16 1520.55 48.9 1527.03 52.38C1533.5 55.7633 1536.84 62.0467 1537.03 71.23C1538.38 67.5567 1538.82 64.125 1538.34 60.935C1537.85 57.745 1537.08 54.3617 1536.02 50.785C1542.98 50.6883 1548.78 50.5917 1553.42 50.495C1558.06 50.3017 1562.16 50.1083 1565.74 49.915C1569.32 49.7217 1572.94 49.625 1576.62 49.625C1578.07 56.585 1578.84 64.125 1578.94 72.245C1579.13 80.2683 1578.6 88.485 1577.34 96.895C1571.83 96.7983 1566.9 96.315 1562.55 95.445C1558.3 94.4783 1554.33 93.0767 1550.66 91.24C1546.99 89.4033 1543.22 87.1317 1539.35 84.425L1536.74 87.76C1540.41 90.4667 1544.18 92.7867 1548.05 94.72C1551.92 96.5567 1555.54 98.2483 1558.93 99.795C1563.95 102.018 1568.21 104.483 1571.69 107.19C1575.17 109.897 1577.82 113.183 1579.66 117.05C1581.59 120.917 1582.56 125.75 1582.56 131.55C1582.56 139.573 1581.16 145.953 1578.36 150.69C1575.65 155.427 1572.02 158.955 1567.48 161.275C1562.94 163.498 1557.96 164.948 1552.55 165.625C1547.23 166.302 1541.91 166.64 1536.6 166.64ZM1588.3 164.465C1587.43 162.435 1586.75 159.873 1586.27 156.78C1585.79 153.687 1585.5 150.497 1585.4 147.21C1585.3 143.827 1585.4 140.588 1585.69 137.495C1586.08 134.402 1586.61 131.84 1587.29 129.81C1588.74 129.23 1590.14 128.263 1591.49 126.91C1592.94 125.46 1594.15 123.188 1595.12 120.095C1596.08 116.905 1596.57 112.458 1596.57 106.755C1596.57 100.568 1595.99 95.9283 1594.83 92.835C1593.76 89.645 1592.46 87.5183 1590.91 86.455C1589.46 85.295 1588.16 84.715 1587 84.715C1586.13 82.975 1585.5 80.6067 1585.11 77.61C1584.72 74.6133 1584.53 71.4233 1584.53 68.04C1584.63 64.56 1584.92 61.225 1585.4 58.035C1585.88 54.7483 1586.61 51.945 1587.58 49.625C1594.73 49.915 1601.16 49.9633 1606.86 49.77C1612.66 49.5767 1618.41 49.2867 1624.12 48.9C1629.92 48.5133 1636.2 48.175 1642.97 47.885C1649.83 47.4983 1657.9 47.305 1667.18 47.305C1680.81 47.305 1692.31 48.5133 1701.69 50.93C1711.07 53.25 1718.17 57.5517 1723.01 63.835C1727.94 70.0217 1730.4 78.8667 1730.4 90.37C1730.4 100.327 1728.52 108.302 1724.75 114.295C1721.07 120.288 1715.76 124.638 1708.8 127.345C1701.84 129.955 1693.47 131.26 1683.71 131.26C1677.52 131.26 1672.59 130.777 1668.92 129.81C1665.25 128.747 1661.86 126.427 1658.77 122.85L1655.73 125.605C1658.24 128.602 1661.28 130.922 1664.86 132.565C1668.44 134.112 1672.88 134.982 1678.2 135.175C1679.07 137.882 1679.6 140.975 1679.8 144.455C1680.09 147.935 1679.99 151.415 1679.51 154.895C1679.12 158.375 1678.39 161.517 1677.33 164.32C1672.59 163.933 1666.02 163.45 1657.61 162.87C1649.3 162.29 1639.78 162.048 1629.05 162.145C1623.63 162.145 1618.32 162.29 1613.1 162.58C1607.88 162.87 1603.09 163.16 1598.74 163.45C1594.49 163.837 1591.01 164.175 1588.3 164.465ZM1655.73 100.52H1664.57V90.805H1655.73V100.52ZM1482.37 287.465C1481.59 285.435 1480.96 282.873 1480.48 279.78C1480 276.687 1479.71 273.497 1479.61 270.21C1479.61 266.827 1479.71 263.588 1479.9 260.495C1480.19 257.402 1480.67 254.84 1481.35 252.81C1484.44 252.037 1486.81 249.91 1488.46 246.43C1490.1 242.853 1490.92 236.812 1490.92 228.305V217.865H1486.28C1487.15 225.212 1487.01 232.462 1485.85 239.615C1482.08 240.388 1478.5 240.92 1475.12 241.21C1471.73 241.403 1468.16 241.403 1464.39 241.21C1460.62 240.92 1456.22 240.388 1451.19 239.615C1450.61 236.232 1450.18 232.075 1449.89 227.145C1449.6 222.118 1449.45 216.85 1449.45 211.34C1449.45 205.733 1449.55 200.32 1449.74 195.1C1449.93 189.88 1450.22 185.288 1450.61 181.325C1451 177.265 1451.43 174.317 1451.92 172.48C1457.62 172.48 1466.22 172.867 1477.73 173.64C1489.23 174.317 1503.87 174.655 1521.66 174.655C1533.74 174.655 1544.09 174.462 1552.69 174.075C1561.29 173.688 1568.54 173.35 1574.44 173.06C1580.43 172.673 1585.36 172.48 1589.23 172.48C1589.71 174.607 1590.15 177.797 1590.54 182.05C1590.92 186.207 1591.21 190.943 1591.41 196.26C1591.6 201.48 1591.7 206.845 1591.7 212.355C1591.7 217.768 1591.55 222.892 1591.26 227.725C1590.97 232.462 1590.54 236.425 1589.96 239.615C1584.93 240.388 1580.58 240.92 1576.91 241.21C1573.23 241.403 1569.66 241.403 1566.18 241.21C1562.79 240.92 1558.93 240.388 1554.58 239.615C1553.42 232.558 1553.27 225.357 1554.14 218.01H1549.5V228.305C1549.5 234.008 1549.98 238.552 1550.95 241.935C1552.01 245.318 1553.37 247.832 1555.01 249.475C1556.65 251.118 1558.49 252.23 1560.52 252.81C1561.2 254.84 1561.63 257.402 1561.83 260.495C1562.12 263.588 1562.21 266.827 1562.12 270.21C1562.12 273.497 1561.87 276.687 1561.39 279.78C1560.91 282.873 1560.28 285.435 1559.51 287.465C1555.25 286.982 1549.89 286.45 1543.41 285.87C1537.03 285.387 1529.54 285.145 1520.94 285.145C1511.95 285.145 1504.31 285.387 1498.03 285.87C1491.84 286.45 1486.62 286.982 1482.37 287.465ZM1590.54 287.465C1589.77 285.435 1589.14 282.873 1588.66 279.78C1588.17 276.687 1587.88 273.497 1587.79 270.21C1587.79 266.827 1587.88 263.588 1588.08 260.495C1588.37 257.402 1588.85 254.84 1589.53 252.81C1592.62 252.133 1594.99 250.732 1596.63 248.605C1598.37 246.382 1599.63 243.723 1600.4 240.63C1601.18 237.44 1601.8 234.153 1602.29 230.77C1602.87 227.193 1603.25 223.762 1603.45 220.475C1603.64 217.092 1603.25 214.24 1602.29 211.92C1601.42 209.6 1599.48 208.198 1596.49 207.715C1595.62 205.975 1594.99 203.607 1594.6 200.61C1594.22 197.613 1594.02 194.423 1594.02 191.04C1594.12 187.56 1594.41 184.225 1594.89 181.035C1595.38 177.748 1596.1 174.945 1597.07 172.625C1601.03 173.012 1605.91 173.398 1611.71 173.785C1617.51 174.075 1625.25 174.22 1634.91 174.22C1641.49 174.22 1648.59 173.978 1656.23 173.495C1663.96 172.915 1671.89 172.383 1680.01 171.9C1688.13 171.417 1696.05 171.175 1703.79 171.175C1710.36 171.175 1715.53 172.577 1719.3 175.38C1723.17 178.087 1726.07 181.663 1728 186.11C1729.94 190.557 1731.19 195.342 1731.77 200.465C1732.35 205.588 1732.59 210.615 1732.5 215.545C1732.5 220.378 1732.5 224.583 1732.5 228.16C1732.5 233.863 1733.03 238.407 1734.09 241.79C1735.16 245.077 1736.56 247.542 1738.3 249.185C1740.13 250.828 1742.07 252.037 1744.1 252.81C1744.77 254.84 1745.21 257.402 1745.4 260.495C1745.69 263.588 1745.79 266.827 1745.69 270.21C1745.69 273.497 1745.45 276.687 1744.97 279.78C1744.48 282.873 1743.86 285.435 1743.08 287.465C1739.12 287.078 1734.33 286.595 1728.73 286.015C1723.22 285.435 1716.55 285.145 1708.72 285.145C1700.69 285.145 1693.11 285.435 1685.95 286.015C1678.9 286.595 1673.39 287.078 1669.42 287.465C1669.04 285.435 1668.7 282.873 1668.41 279.78C1668.12 276.687 1667.92 273.497 1667.83 270.21C1667.73 266.827 1667.73 263.588 1667.83 260.495C1667.92 257.402 1668.12 254.84 1668.41 252.81H1672.47V245.56H1659.85V252.81H1663.91C1664.3 254.84 1664.54 257.402 1664.64 260.495C1664.83 263.588 1664.88 266.827 1664.78 270.21C1664.69 273.497 1664.49 276.687 1664.2 279.78C1663.91 282.873 1663.48 285.435 1662.9 287.465C1660.29 287.175 1657.48 286.837 1654.49 286.45C1651.59 286.16 1648.16 285.87 1644.19 285.58C1640.33 285.29 1635.54 285.145 1629.84 285.145C1620.85 285.145 1613.11 285.387 1606.64 285.87C1600.16 286.45 1594.8 286.982 1590.54 287.465ZM1660.87 224.245H1671.31V217.43H1660.87V224.245Z" fill="white" fill-opacity="0.14"/>
</g>
</svg>
