<svg width="1922" height="1207" viewBox="0 0 1922 1207" fill="none" xmlns="http://www.w3.org/2000/svg">
<g clip-path="url(#clip0_327_20)">
<rect width="1922" height="1207" fill="#313337"/>
<g clip-path="url(#clip1_327_20)">
<path d="M57.76 118.12C42.6133 118.12 31.3067 116.307 23.84 112.68C16.48 108.947 12.6933 102.387 12.48 93C11.0933 96.9467 10.6133 100.627 11.04 104.04C11.5733 107.453 12.4267 110.813 13.6 114.12C2.18667 114.44 -7.30666 114.76 -14.88 115.08C-22.4533 115.507 -29.3333 115.667 -35.52 115.56C-37.12 107.027 -38.0267 98.6 -38.24 90.28C-38.3467 81.8533 -37.7067 72.9467 -36.32 63.56C-30.4533 63.56 -24.5867 64.1467 -18.72 65.32C-12.8533 66.4933 -7.30666 68.1467 -2.08 70.28C3.14667 72.3067 7.62667 74.8133 11.36 77.8L14.56 74.44C10.9333 71.56 6.98667 69.16 2.72 67.24C-1.44 65.2133 -5.65333 63.5067 -9.92 62.12C-15.36 60.2 -20.32 57.7467 -24.8 54.76C-29.1733 51.7733 -32.64 48.04 -35.2 43.56C-37.76 39.08 -39.04 33.7467 -39.04 27.56C-39.04 19.88 -37.28 12.9467 -33.76 6.75999C-30.24 0.46666 -24.48 -4.49334 -16.48 -8.12C-8.37333 -11.8533 2.50667 -13.72 16.16 -13.72C29.7067 -13.72 40.0533 -11.8 47.2 -7.96001C54.3467 -4.22667 58.0267 2.70666 58.24 12.84C59.7333 8.78666 60.2133 4.99999 59.68 1.48C59.1467 -2.04 58.2933 -5.77334 57.12 -9.72C64.8 -9.82667 71.2 -9.93334 76.32 -10.04C81.44 -10.2533 85.9733 -10.4667 89.92 -10.68C93.8667 -10.8933 97.8667 -11 101.92 -11C103.52 -3.32 104.373 5 104.48 13.96C104.693 22.8133 104.107 31.88 102.72 41.16C96.64 41.0533 91.2 40.52 86.4 39.56C81.7067 38.4933 77.3333 36.9467 73.28 34.92C69.2267 32.8933 65.0667 30.3867 60.8 27.4L57.92 31.08C61.9733 34.0667 66.1333 36.6267 70.4 38.76C74.6667 40.7867 78.6667 42.6533 82.4 44.36C87.9467 46.8133 92.64 49.5333 96.48 52.52C100.32 55.5067 103.253 59.1333 105.28 63.4C107.413 67.6667 108.48 73 108.48 79.4C108.48 88.2533 106.933 95.2933 103.84 100.52C100.853 105.747 96.8533 109.64 91.84 112.2C86.8267 114.653 81.3333 116.253 75.36 117C69.4933 117.747 63.6267 118.12 57.76 118.12ZM114.815 115.72C113.855 113.48 113.108 110.653 112.575 107.24C112.042 103.827 111.722 100.307 111.615 96.68C111.508 92.9467 111.615 89.3733 111.935 85.96C112.362 82.5467 112.948 79.72 113.695 77.48C115.295 76.84 116.842 75.7733 118.335 74.28C119.935 72.68 121.268 70.1733 122.335 66.76C123.402 63.24 123.935 58.3333 123.935 52.04C123.935 45.2133 123.295 40.0933 122.015 36.68C120.842 33.16 119.402 30.8133 117.695 29.64C116.095 28.36 114.655 27.72 113.375 27.72C112.415 25.8 111.722 23.1867 111.295 19.88C110.868 16.5733 110.655 13.0533 110.655 9.32C110.762 5.48 111.082 1.8 111.615 -1.72C112.148 -5.34667 112.948 -8.44001 114.015 -11C121.908 -10.68 129.002 -10.6267 135.295 -10.84C141.695 -11.0533 148.042 -11.3733 154.335 -11.8C160.735 -12.2267 167.668 -12.6 175.135 -12.92C182.708 -13.3467 191.615 -13.56 201.855 -13.56C216.895 -13.56 229.588 -12.2267 239.935 -9.56001C250.282 -7.00001 258.122 -2.25334 263.455 4.67999C268.895 11.5067 271.615 21.2667 271.615 33.96C271.615 44.9467 269.535 53.7467 265.375 60.36C261.322 66.9733 255.455 71.7733 247.775 74.76C240.095 77.64 230.868 79.08 220.095 79.08C213.268 79.08 207.828 78.5467 203.775 77.48C199.722 76.3067 195.988 73.7467 192.575 69.8L189.215 72.84C191.988 76.1467 195.348 78.7067 199.295 80.52C203.242 82.2267 208.148 83.1867 214.015 83.4C214.975 86.3867 215.562 89.8 215.775 93.64C216.095 97.48 215.988 101.32 215.455 105.16C215.028 109 214.228 112.467 213.055 115.56C207.828 115.133 200.575 114.6 191.295 113.96C182.122 113.32 171.615 113.053 159.775 113.16C153.802 113.16 147.935 113.32 142.175 113.64C136.415 113.96 131.135 114.28 126.335 114.6C121.642 115.027 117.802 115.4 114.815 115.72ZM189.215 45.16H198.975V34.44H189.215V45.16ZM-2.08 251.72C-2.93333 249.48 -3.62666 246.653 -4.16 243.24C-4.69333 239.827 -5.01333 236.307 -5.12 232.68C-5.12 228.947 -5.01333 225.373 -4.8 221.96C-4.48 218.547 -3.94667 215.72 -3.2 213.48C0.213336 212.627 2.82667 210.28 4.64 206.44C6.45333 202.493 7.36 195.827 7.36 186.44V174.92H2.24C3.2 183.027 3.04 191.027 1.76 198.92C-2.4 199.773 -6.34666 200.36 -10.08 200.68C-13.8133 200.893 -17.76 200.893 -21.92 200.68C-26.08 200.36 -30.9333 199.773 -36.48 198.92C-37.12 195.187 -37.6 190.6 -37.92 185.16C-38.24 179.613 -38.4 173.8 -38.4 167.72C-38.4 161.533 -38.2933 155.56 -38.08 149.8C-37.8667 144.04 -37.5467 138.973 -37.12 134.6C-36.6933 130.12 -36.2133 126.867 -35.68 124.84C-29.3867 124.84 -19.8933 125.267 -7.2 126.12C5.49333 126.867 21.6533 127.24 41.28 127.24C54.6133 127.24 66.0267 127.027 75.52 126.6C85.0133 126.173 93.0133 125.8 99.52 125.48C106.133 125.053 111.573 124.84 115.84 124.84C116.373 127.187 116.853 130.707 117.28 135.4C117.707 139.987 118.027 145.213 118.24 151.08C118.453 156.84 118.56 162.76 118.56 168.84C118.56 174.813 118.4 180.467 118.08 185.8C117.76 191.027 117.28 195.4 116.64 198.92C111.093 199.773 106.293 200.36 102.24 200.68C98.1867 200.893 94.24 200.893 90.4 200.68C86.6667 200.36 82.4 199.773 77.6 198.92C76.32 191.133 76.16 183.187 77.12 175.08H72V186.44C72 192.733 72.5333 197.747 73.6 201.48C74.7733 205.213 76.2667 207.987 78.08 209.8C79.8933 211.613 81.92 212.84 84.16 213.48C84.9067 215.72 85.3867 218.547 85.6 221.96C85.92 225.373 86.0267 228.947 85.92 232.68C85.92 236.307 85.6533 239.827 85.12 243.24C84.5867 246.653 83.8933 249.48 83.04 251.72C78.3467 251.187 72.4267 250.6 65.28 249.96C58.24 249.427 49.9733 249.16 40.48 249.16C30.56 249.16 22.1333 249.427 15.2 249.96C8.37334 250.6 2.61334 251.187 -2.08 251.72ZM117.289 251.72C116.435 249.48 115.742 246.653 115.209 243.24C114.675 239.827 114.355 236.307 114.249 232.68C114.249 228.947 114.355 225.373 114.569 221.96C114.889 218.547 115.422 215.72 116.169 213.48C119.582 212.733 122.195 211.187 124.009 208.84C125.929 206.387 127.315 203.453 128.169 200.04C129.022 196.52 129.715 192.893 130.249 189.16C130.889 185.213 131.315 181.427 131.529 177.8C131.742 174.067 131.315 170.92 130.249 168.36C129.289 165.8 127.155 164.253 123.849 163.72C122.889 161.8 122.195 159.187 121.769 155.88C121.342 152.573 121.129 149.053 121.129 145.32C121.235 141.48 121.555 137.8 122.089 134.28C122.622 130.653 123.422 127.56 124.489 125C128.862 125.427 134.249 125.853 140.649 126.28C147.049 126.6 155.582 126.76 166.249 126.76C173.502 126.76 181.342 126.493 189.769 125.96C198.302 125.32 207.049 124.733 216.009 124.2C224.969 123.667 233.715 123.4 242.249 123.4C249.502 123.4 255.209 124.947 259.369 128.04C263.635 131.027 266.835 134.973 268.969 139.88C271.102 144.787 272.489 150.067 273.129 155.72C273.769 161.373 274.035 166.92 273.929 172.36C273.929 177.693 273.929 182.333 273.929 186.28C273.929 192.573 274.515 197.587 275.689 201.32C276.862 204.947 278.409 207.667 280.329 209.48C282.355 211.293 284.489 212.627 286.729 213.48C287.475 215.72 287.955 218.547 288.169 221.96C288.489 225.373 288.595 228.947 288.489 232.68C288.489 236.307 288.222 239.827 287.689 243.24C287.155 246.653 286.462 249.48 285.609 251.72C281.235 251.293 275.955 250.76 269.769 250.12C263.689 249.48 256.329 249.16 247.689 249.16C238.835 249.16 230.462 249.48 222.569 250.12C214.782 250.76 208.702 251.293 204.329 251.72C203.902 249.48 203.529 246.653 203.209 243.24C202.889 239.827 202.675 236.307 202.569 232.68C202.462 228.947 202.462 225.373 202.569 221.96C202.675 218.547 202.889 215.72 203.209 213.48H207.689V205.48H193.769V213.48H198.249C198.675 215.72 198.942 218.547 199.049 221.96C199.262 225.373 199.315 228.947 199.209 232.68C199.102 236.307 198.889 239.827 198.569 243.24C198.249 246.653 197.769 249.48 197.129 251.72C194.249 251.4 191.155 251.027 187.849 250.6C184.649 250.28 180.862 249.96 176.489 249.64C172.222 249.32 166.942 249.16 160.649 249.16C150.729 249.16 142.195 249.427 135.049 249.96C127.902 250.6 121.982 251.187 117.289 251.72ZM194.889 181.96H206.409V174.44H194.889V181.96Z" fill="white" fill-opacity="0.03"/>
<path d="M57.76 400.12C42.6133 400.12 31.3067 398.307 23.84 394.68C16.48 390.947 12.6933 384.387 12.48 375C11.0933 378.947 10.6133 382.627 11.04 386.04C11.5733 389.453 12.4267 392.813 13.6 396.12C2.18667 396.44 -7.30666 396.76 -14.88 397.08C-22.4533 397.507 -29.3333 397.667 -35.52 397.56C-37.12 389.027 -38.0267 380.6 -38.24 372.28C-38.3467 363.853 -37.7067 354.947 -36.32 345.56C-30.4533 345.56 -24.5867 346.147 -18.72 347.32C-12.8533 348.493 -7.30666 350.147 -2.08 352.28C3.14667 354.307 7.62667 356.813 11.36 359.8L14.56 356.44C10.9333 353.56 6.98667 351.16 2.72 349.24C-1.44 347.213 -5.65333 345.507 -9.92 344.12C-15.36 342.2 -20.32 339.747 -24.8 336.76C-29.1733 333.773 -32.64 330.04 -35.2 325.56C-37.76 321.08 -39.04 315.747 -39.04 309.56C-39.04 301.88 -37.28 294.947 -33.76 288.76C-30.24 282.467 -24.48 277.507 -16.48 273.88C-8.37333 270.147 2.50667 268.28 16.16 268.28C29.7067 268.28 40.0533 270.2 47.2 274.04C54.3467 277.773 58.0267 284.707 58.24 294.84C59.7333 290.787 60.2133 287 59.68 283.48C59.1467 279.96 58.2933 276.227 57.12 272.28C64.8 272.173 71.2 272.067 76.32 271.96C81.44 271.747 85.9733 271.533 89.92 271.32C93.8667 271.107 97.8667 271 101.92 271C103.52 278.68 104.373 287 104.48 295.96C104.693 304.813 104.107 313.88 102.72 323.16C96.64 323.053 91.2 322.52 86.4 321.56C81.7067 320.493 77.3333 318.947 73.28 316.92C69.2267 314.893 65.0667 312.387 60.8 309.4L57.92 313.08C61.9733 316.067 66.1333 318.627 70.4 320.76C74.6667 322.787 78.6667 324.653 82.4 326.36C87.9467 328.813 92.64 331.533 96.48 334.52C100.32 337.507 103.253 341.133 105.28 345.4C107.413 349.667 108.48 355 108.48 361.4C108.48 370.253 106.933 377.293 103.84 382.52C100.853 387.747 96.8533 391.64 91.84 394.2C86.8267 396.653 81.3333 398.253 75.36 399C69.4933 399.747 63.6267 400.12 57.76 400.12ZM114.815 397.72C113.855 395.48 113.108 392.653 112.575 389.24C112.042 385.827 111.722 382.307 111.615 378.68C111.508 374.947 111.615 371.373 111.935 367.96C112.362 364.547 112.948 361.72 113.695 359.48C115.295 358.84 116.842 357.773 118.335 356.28C119.935 354.68 121.268 352.173 122.335 348.76C123.402 345.24 123.935 340.333 123.935 334.04C123.935 327.213 123.295 322.093 122.015 318.68C120.842 315.16 119.402 312.813 117.695 311.64C116.095 310.36 114.655 309.72 113.375 309.72C112.415 307.8 111.722 305.187 111.295 301.88C110.868 298.573 110.655 295.053 110.655 291.32C110.762 287.48 111.082 283.8 111.615 280.28C112.148 276.653 112.948 273.56 114.015 271C121.908 271.32 129.002 271.373 135.295 271.16C141.695 270.947 148.042 270.627 154.335 270.2C160.735 269.773 167.668 269.4 175.135 269.08C182.708 268.653 191.615 268.44 201.855 268.44C216.895 268.44 229.588 269.773 239.935 272.44C250.282 275 258.122 279.747 263.455 286.68C268.895 293.507 271.615 303.267 271.615 315.96C271.615 326.947 269.535 335.747 265.375 342.36C261.322 348.973 255.455 353.773 247.775 356.76C240.095 359.64 230.868 361.08 220.095 361.08C213.268 361.08 207.828 360.547 203.775 359.48C199.722 358.307 195.988 355.747 192.575 351.8L189.215 354.84C191.988 358.147 195.348 360.707 199.295 362.52C203.242 364.227 208.148 365.187 214.015 365.4C214.975 368.387 215.562 371.8 215.775 375.64C216.095 379.48 215.988 383.32 215.455 387.16C215.028 391 214.228 394.467 213.055 397.56C207.828 397.133 200.575 396.6 191.295 395.96C182.122 395.32 171.615 395.053 159.775 395.16C153.802 395.16 147.935 395.32 142.175 395.64C136.415 395.96 131.135 396.28 126.335 396.6C121.642 397.027 117.802 397.4 114.815 397.72ZM189.215 327.16H198.975V316.44H189.215V327.16ZM-2.08 533.72C-2.93333 531.48 -3.62666 528.653 -4.16 525.24C-4.69333 521.827 -5.01333 518.307 -5.12 514.68C-5.12 510.947 -5.01333 507.373 -4.8 503.96C-4.48 500.547 -3.94667 497.72 -3.2 495.48C0.213336 494.627 2.82667 492.28 4.64 488.44C6.45333 484.493 7.36 477.827 7.36 468.44V456.92H2.24C3.2 465.027 3.04 473.027 1.76 480.92C-2.4 481.773 -6.34666 482.36 -10.08 482.68C-13.8133 482.893 -17.76 482.893 -21.92 482.68C-26.08 482.36 -30.9333 481.773 -36.48 480.92C-37.12 477.187 -37.6 472.6 -37.92 467.16C-38.24 461.613 -38.4 455.8 -38.4 449.72C-38.4 443.533 -38.2933 437.56 -38.08 431.8C-37.8667 426.04 -37.5467 420.973 -37.12 416.6C-36.6933 412.12 -36.2133 408.867 -35.68 406.84C-29.3867 406.84 -19.8933 407.267 -7.2 408.12C5.49333 408.867 21.6533 409.24 41.28 409.24C54.6133 409.24 66.0267 409.027 75.52 408.6C85.0133 408.173 93.0133 407.8 99.52 407.48C106.133 407.053 111.573 406.84 115.84 406.84C116.373 409.187 116.853 412.707 117.28 417.4C117.707 421.987 118.027 427.213 118.24 433.08C118.453 438.84 118.56 444.76 118.56 450.84C118.56 456.813 118.4 462.467 118.08 467.8C117.76 473.027 117.28 477.4 116.64 480.92C111.093 481.773 106.293 482.36 102.24 482.68C98.1867 482.893 94.24 482.893 90.4 482.68C86.6667 482.36 82.4 481.773 77.6 480.92C76.32 473.133 76.16 465.187 77.12 457.08H72V468.44C72 474.733 72.5333 479.747 73.6 483.48C74.7733 487.213 76.2667 489.987 78.08 491.8C79.8933 493.613 81.92 494.84 84.16 495.48C84.9067 497.72 85.3867 500.547 85.6 503.96C85.92 507.373 86.0267 510.947 85.92 514.68C85.92 518.307 85.6533 521.827 85.12 525.24C84.5867 528.653 83.8933 531.48 83.04 533.72C78.3467 533.187 72.4267 532.6 65.28 531.96C58.24 531.427 49.9733 531.16 40.48 531.16C30.56 531.16 22.1333 531.427 15.2 531.96C8.37334 532.6 2.61334 533.187 -2.08 533.72ZM117.289 533.72C116.435 531.48 115.742 528.653 115.209 525.24C114.675 521.827 114.355 518.307 114.249 514.68C114.249 510.947 114.355 507.373 114.569 503.96C114.889 500.547 115.422 497.72 116.169 495.48C119.582 494.733 122.195 493.187 124.009 490.84C125.929 488.387 127.315 485.453 128.169 482.04C129.022 478.52 129.715 474.893 130.249 471.16C130.889 467.213 131.315 463.427 131.529 459.8C131.742 456.067 131.315 452.92 130.249 450.36C129.289 447.8 127.155 446.253 123.849 445.72C122.889 443.8 122.195 441.187 121.769 437.88C121.342 434.573 121.129 431.053 121.129 427.32C121.235 423.48 121.555 419.8 122.089 416.28C122.622 412.653 123.422 409.56 124.489 407C128.862 407.427 134.249 407.853 140.649 408.28C147.049 408.6 155.582 408.76 166.249 408.76C173.502 408.76 181.342 408.493 189.769 407.96C198.302 407.32 207.049 406.733 216.009 406.2C224.969 405.667 233.715 405.4 242.249 405.4C249.502 405.4 255.209 406.947 259.369 410.04C263.635 413.027 266.835 416.973 268.969 421.88C271.102 426.787 272.489 432.067 273.129 437.72C273.769 443.373 274.035 448.92 273.929 454.36C273.929 459.693 273.929 464.333 273.929 468.28C273.929 474.573 274.515 479.587 275.689 483.32C276.862 486.947 278.409 489.667 280.329 491.48C282.355 493.293 284.489 494.627 286.729 495.48C287.475 497.72 287.955 500.547 288.169 503.96C288.489 507.373 288.595 510.947 288.489 514.68C288.489 518.307 288.222 521.827 287.689 525.24C287.155 528.653 286.462 531.48 285.609 533.72C281.235 533.293 275.955 532.76 269.769 532.12C263.689 531.48 256.329 531.16 247.689 531.16C238.835 531.16 230.462 531.48 222.569 532.12C214.782 532.76 208.702 533.293 204.329 533.72C203.902 531.48 203.529 528.653 203.209 525.24C202.889 521.827 202.675 518.307 202.569 514.68C202.462 510.947 202.462 507.373 202.569 503.96C202.675 500.547 202.889 497.72 203.209 495.48H207.689V487.48H193.769V495.48H198.249C198.675 497.72 198.942 500.547 199.049 503.96C199.262 507.373 199.315 510.947 199.209 514.68C199.102 518.307 198.889 521.827 198.569 525.24C198.249 528.653 197.769 531.48 197.129 533.72C194.249 533.4 191.155 533.027 187.849 532.6C184.649 532.28 180.862 531.96 176.489 531.64C172.222 531.32 166.942 531.16 160.649 531.16C150.729 531.16 142.195 531.427 135.049 531.96C127.902 532.6 121.982 533.187 117.289 533.72ZM194.889 463.96H206.409V456.44H194.889V463.96Z" fill="white" fill-opacity="0.03"/>
<path d="M57.76 682.12C42.6133 682.12 31.3067 680.307 23.84 676.68C16.48 672.947 12.6933 666.387 12.48 657C11.0933 660.947 10.6133 664.627 11.04 668.04C11.5733 671.453 12.4267 674.813 13.6 678.12C2.18667 678.44 -7.30666 678.76 -14.88 679.08C-22.4533 679.507 -29.3333 679.667 -35.52 679.56C-37.12 671.027 -38.0267 662.6 -38.24 654.28C-38.3467 645.853 -37.7067 636.947 -36.32 627.56C-30.4533 627.56 -24.5867 628.147 -18.72 629.32C-12.8533 630.493 -7.30666 632.147 -2.08 634.28C3.14667 636.307 7.62667 638.813 11.36 641.8L14.56 638.44C10.9333 635.56 6.98667 633.16 2.72 631.24C-1.44 629.213 -5.65333 627.507 -9.92 626.12C-15.36 624.2 -20.32 621.747 -24.8 618.76C-29.1733 615.773 -32.64 612.04 -35.2 607.56C-37.76 603.08 -39.04 597.747 -39.04 591.56C-39.04 583.88 -37.28 576.947 -33.76 570.76C-30.24 564.467 -24.48 559.507 -16.48 555.88C-8.37333 552.147 2.50667 550.28 16.16 550.28C29.7067 550.28 40.0533 552.2 47.2 556.04C54.3467 559.773 58.0267 566.707 58.24 576.84C59.7333 572.787 60.2133 569 59.68 565.48C59.1467 561.96 58.2933 558.227 57.12 554.28C64.8 554.173 71.2 554.067 76.32 553.96C81.44 553.747 85.9733 553.533 89.92 553.32C93.8667 553.107 97.8667 553 101.92 553C103.52 560.68 104.373 569 104.48 577.96C104.693 586.813 104.107 595.88 102.72 605.16C96.64 605.053 91.2 604.52 86.4 603.56C81.7067 602.493 77.3333 600.947 73.28 598.92C69.2267 596.893 65.0667 594.387 60.8 591.4L57.92 595.08C61.9733 598.067 66.1333 600.627 70.4 602.76C74.6667 604.787 78.6667 606.653 82.4 608.36C87.9467 610.813 92.64 613.533 96.48 616.52C100.32 619.507 103.253 623.133 105.28 627.4C107.413 631.667 108.48 637 108.48 643.4C108.48 652.253 106.933 659.293 103.84 664.52C100.853 669.747 96.8533 673.64 91.84 676.2C86.8267 678.653 81.3333 680.253 75.36 681C69.4933 681.747 63.6267 682.12 57.76 682.12ZM114.815 679.72C113.855 677.48 113.108 674.653 112.575 671.24C112.042 667.827 111.722 664.307 111.615 660.68C111.508 656.947 111.615 653.373 111.935 649.96C112.362 646.547 112.948 643.72 113.695 641.48C115.295 640.84 116.842 639.773 118.335 638.28C119.935 636.68 121.268 634.173 122.335 630.76C123.402 627.24 123.935 622.333 123.935 616.04C123.935 609.213 123.295 604.093 122.015 600.68C120.842 597.16 119.402 594.813 117.695 593.64C116.095 592.36 114.655 591.72 113.375 591.72C112.415 589.8 111.722 587.187 111.295 583.88C110.868 580.573 110.655 577.053 110.655 573.32C110.762 569.48 111.082 565.8 111.615 562.28C112.148 558.653 112.948 555.56 114.015 553C121.908 553.32 129.002 553.373 135.295 553.16C141.695 552.947 148.042 552.627 154.335 552.2C160.735 551.773 167.668 551.4 175.135 551.08C182.708 550.653 191.615 550.44 201.855 550.44C216.895 550.44 229.588 551.773 239.935 554.44C250.282 557 258.122 561.747 263.455 568.68C268.895 575.507 271.615 585.267 271.615 597.96C271.615 608.947 269.535 617.747 265.375 624.36C261.322 630.973 255.455 635.773 247.775 638.76C240.095 641.64 230.868 643.08 220.095 643.08C213.268 643.08 207.828 642.547 203.775 641.48C199.722 640.307 195.988 637.747 192.575 633.8L189.215 636.84C191.988 640.147 195.348 642.707 199.295 644.52C203.242 646.227 208.148 647.187 214.015 647.4C214.975 650.387 215.562 653.8 215.775 657.64C216.095 661.48 215.988 665.32 215.455 669.16C215.028 673 214.228 676.467 213.055 679.56C207.828 679.133 200.575 678.6 191.295 677.96C182.122 677.32 171.615 677.053 159.775 677.16C153.802 677.16 147.935 677.32 142.175 677.64C136.415 677.96 131.135 678.28 126.335 678.6C121.642 679.027 117.802 679.4 114.815 679.72ZM189.215 609.16H198.975V598.44H189.215V609.16ZM-2.08 815.72C-2.93333 813.48 -3.62666 810.653 -4.16 807.24C-4.69333 803.827 -5.01333 800.307 -5.12 796.68C-5.12 792.947 -5.01333 789.373 -4.8 785.96C-4.48 782.547 -3.94667 779.72 -3.2 777.48C0.213336 776.627 2.82667 774.28 4.64 770.44C6.45333 766.493 7.36 759.827 7.36 750.44V738.92H2.24C3.2 747.027 3.04 755.027 1.76 762.92C-2.4 763.773 -6.34666 764.36 -10.08 764.68C-13.8133 764.893 -17.76 764.893 -21.92 764.68C-26.08 764.36 -30.9333 763.773 -36.48 762.92C-37.12 759.187 -37.6 754.6 -37.92 749.16C-38.24 743.613 -38.4 737.8 -38.4 731.72C-38.4 725.533 -38.2933 719.56 -38.08 713.8C-37.8667 708.04 -37.5467 702.973 -37.12 698.6C-36.6933 694.12 -36.2133 690.867 -35.68 688.84C-29.3867 688.84 -19.8933 689.267 -7.2 690.12C5.49333 690.867 21.6533 691.24 41.28 691.24C54.6133 691.24 66.0267 691.027 75.52 690.6C85.0133 690.173 93.0133 689.8 99.52 689.48C106.133 689.053 111.573 688.84 115.84 688.84C116.373 691.187 116.853 694.707 117.28 699.4C117.707 703.987 118.027 709.213 118.24 715.08C118.453 720.84 118.56 726.76 118.56 732.84C118.56 738.813 118.4 744.467 118.08 749.8C117.76 755.027 117.28 759.4 116.64 762.92C111.093 763.773 106.293 764.36 102.24 764.68C98.1867 764.893 94.24 764.893 90.4 764.68C86.6667 764.36 82.4 763.773 77.6 762.92C76.32 755.133 76.16 747.187 77.12 739.08H72V750.44C72 756.733 72.5333 761.747 73.6 765.48C74.7733 769.213 76.2667 771.987 78.08 773.8C79.8933 775.613 81.92 776.84 84.16 777.48C84.9067 779.72 85.3867 782.547 85.6 785.96C85.92 789.373 86.0267 792.947 85.92 796.68C85.92 800.307 85.6533 803.827 85.12 807.24C84.5867 810.653 83.8933 813.48 83.04 815.72C78.3467 815.187 72.4267 814.6 65.28 813.96C58.24 813.427 49.9733 813.16 40.48 813.16C30.56 813.16 22.1333 813.427 15.2 813.96C8.37334 814.6 2.61334 815.187 -2.08 815.72ZM117.289 815.72C116.435 813.48 115.742 810.653 115.209 807.24C114.675 803.827 114.355 800.307 114.249 796.68C114.249 792.947 114.355 789.373 114.569 785.96C114.889 782.547 115.422 779.72 116.169 777.48C119.582 776.733 122.195 775.187 124.009 772.84C125.929 770.387 127.315 767.453 128.169 764.04C129.022 760.52 129.715 756.893 130.249 753.16C130.889 749.213 131.315 745.427 131.529 741.8C131.742 738.067 131.315 734.92 130.249 732.36C129.289 729.8 127.155 728.253 123.849 727.72C122.889 725.8 122.195 723.187 121.769 719.88C121.342 716.573 121.129 713.053 121.129 709.32C121.235 705.48 121.555 701.8 122.089 698.28C122.622 694.653 123.422 691.56 124.489 689C128.862 689.427 134.249 689.853 140.649 690.28C147.049 690.6 155.582 690.76 166.249 690.76C173.502 690.76 181.342 690.493 189.769 689.96C198.302 689.32 207.049 688.733 216.009 688.2C224.969 687.667 233.715 687.4 242.249 687.4C249.502 687.4 255.209 688.947 259.369 692.04C263.635 695.027 266.835 698.973 268.969 703.88C271.102 708.787 272.489 714.067 273.129 719.72C273.769 725.373 274.035 730.92 273.929 736.36C273.929 741.693 273.929 746.333 273.929 750.28C273.929 756.573 274.515 761.587 275.689 765.32C276.862 768.947 278.409 771.667 280.329 773.48C282.355 775.293 284.489 776.627 286.729 777.48C287.475 779.72 287.955 782.547 288.169 785.96C288.489 789.373 288.595 792.947 288.489 796.68C288.489 800.307 288.222 803.827 287.689 807.24C287.155 810.653 286.462 813.48 285.609 815.72C281.235 815.293 275.955 814.76 269.769 814.12C263.689 813.48 256.329 813.16 247.689 813.16C238.835 813.16 230.462 813.48 222.569 814.12C214.782 814.76 208.702 815.293 204.329 815.72C203.902 813.48 203.529 810.653 203.209 807.24C202.889 803.827 202.675 800.307 202.569 796.68C202.462 792.947 202.462 789.373 202.569 785.96C202.675 782.547 202.889 779.72 203.209 777.48H207.689V769.48H193.769V777.48H198.249C198.675 779.72 198.942 782.547 199.049 785.96C199.262 789.373 199.315 792.947 199.209 796.68C199.102 800.307 198.889 803.827 198.569 807.24C198.249 810.653 197.769 813.48 197.129 815.72C194.249 815.4 191.155 815.027 187.849 814.6C184.649 814.28 180.862 813.96 176.489 813.64C172.222 813.32 166.942 813.16 160.649 813.16C150.729 813.16 142.195 813.427 135.049 813.96C127.902 814.6 121.982 815.187 117.289 815.72ZM194.889 745.96H206.409V738.44H194.889V745.96Z" fill="white" fill-opacity="0.03"/>
<path d="M57.76 964.12C42.6133 964.12 31.3067 962.307 23.84 958.68C16.48 954.947 12.6933 948.387 12.48 939C11.0933 942.947 10.6133 946.627 11.04 950.04C11.5733 953.453 12.4267 956.813 13.6 960.12C2.18667 960.44 -7.30666 960.76 -14.88 961.08C-22.4533 961.507 -29.3333 961.667 -35.52 961.56C-37.12 953.027 -38.0267 944.6 -38.24 936.28C-38.3467 927.853 -37.7067 918.947 -36.32 909.56C-30.4533 909.56 -24.5867 910.147 -18.72 911.32C-12.8533 912.493 -7.30666 914.147 -2.08 916.28C3.14667 918.307 7.62667 920.813 11.36 923.8L14.56 920.44C10.9333 917.56 6.98667 915.16 2.72 913.24C-1.44 911.213 -5.65333 909.507 -9.92 908.12C-15.36 906.2 -20.32 903.747 -24.8 900.76C-29.1733 897.773 -32.64 894.04 -35.2 889.56C-37.76 885.08 -39.04 879.747 -39.04 873.56C-39.04 865.88 -37.28 858.947 -33.76 852.76C-30.24 846.467 -24.48 841.507 -16.48 837.88C-8.37333 834.147 2.50667 832.28 16.16 832.28C29.7067 832.28 40.0533 834.2 47.2 838.04C54.3467 841.773 58.0267 848.707 58.24 858.84C59.7333 854.787 60.2133 851 59.68 847.48C59.1467 843.96 58.2933 840.227 57.12 836.28C64.8 836.173 71.2 836.067 76.32 835.96C81.44 835.747 85.9733 835.533 89.92 835.32C93.8667 835.107 97.8667 835 101.92 835C103.52 842.68 104.373 851 104.48 859.96C104.693 868.813 104.107 877.88 102.72 887.16C96.64 887.053 91.2 886.52 86.4 885.56C81.7067 884.493 77.3333 882.947 73.28 880.92C69.2267 878.893 65.0667 876.387 60.8 873.4L57.92 877.08C61.9733 880.067 66.1333 882.627 70.4 884.76C74.6667 886.787 78.6667 888.653 82.4 890.36C87.9467 892.813 92.64 895.533 96.48 898.52C100.32 901.507 103.253 905.133 105.28 909.4C107.413 913.667 108.48 919 108.48 925.4C108.48 934.253 106.933 941.293 103.84 946.52C100.853 951.747 96.8533 955.64 91.84 958.2C86.8267 960.653 81.3333 962.253 75.36 963C69.4933 963.747 63.6267 964.12 57.76 964.12ZM114.815 961.72C113.855 959.48 113.108 956.653 112.575 953.24C112.042 949.827 111.722 946.307 111.615 942.68C111.508 938.947 111.615 935.373 111.935 931.96C112.362 928.547 112.948 925.72 113.695 923.48C115.295 922.84 116.842 921.773 118.335 920.28C119.935 918.68 121.268 916.173 122.335 912.76C123.402 909.24 123.935 904.333 123.935 898.04C123.935 891.213 123.295 886.093 122.015 882.68C120.842 879.16 119.402 876.813 117.695 875.64C116.095 874.36 114.655 873.72 113.375 873.72C112.415 871.8 111.722 869.187 111.295 865.88C110.868 862.573 110.655 859.053 110.655 855.32C110.762 851.48 111.082 847.8 111.615 844.28C112.148 840.653 112.948 837.56 114.015 835C121.908 835.32 129.002 835.373 135.295 835.16C141.695 834.947 148.042 834.627 154.335 834.2C160.735 833.773 167.668 833.4 175.135 833.08C182.708 832.653 191.615 832.44 201.855 832.44C216.895 832.44 229.588 833.773 239.935 836.44C250.282 839 258.122 843.747 263.455 850.68C268.895 857.507 271.615 867.267 271.615 879.96C271.615 890.947 269.535 899.747 265.375 906.36C261.322 912.973 255.455 917.773 247.775 920.76C240.095 923.64 230.868 925.08 220.095 925.08C213.268 925.08 207.828 924.547 203.775 923.48C199.722 922.307 195.988 919.747 192.575 915.8L189.215 918.84C191.988 922.147 195.348 924.707 199.295 926.52C203.242 928.227 208.148 929.187 214.015 929.4C214.975 932.387 215.562 935.8 215.775 939.64C216.095 943.48 215.988 947.32 215.455 951.16C215.028 955 214.228 958.467 213.055 961.56C207.828 961.133 200.575 960.6 191.295 959.96C182.122 959.32 171.615 959.053 159.775 959.16C153.802 959.16 147.935 959.32 142.175 959.64C136.415 959.96 131.135 960.28 126.335 960.6C121.642 961.027 117.802 961.4 114.815 961.72ZM189.215 891.16H198.975V880.44H189.215V891.16ZM-2.08 1097.72C-2.93333 1095.48 -3.62666 1092.65 -4.16 1089.24C-4.69333 1085.83 -5.01333 1082.31 -5.12 1078.68C-5.12 1074.95 -5.01333 1071.37 -4.8 1067.96C-4.48 1064.55 -3.94667 1061.72 -3.2 1059.48C0.213336 1058.63 2.82667 1056.28 4.64 1052.44C6.45333 1048.49 7.36 1041.83 7.36 1032.44V1020.92H2.24C3.2 1029.03 3.04 1037.03 1.76 1044.92C-2.4 1045.77 -6.34666 1046.36 -10.08 1046.68C-13.8133 1046.89 -17.76 1046.89 -21.92 1046.68C-26.08 1046.36 -30.9333 1045.77 -36.48 1044.92C-37.12 1041.19 -37.6 1036.6 -37.92 1031.16C-38.24 1025.61 -38.4 1019.8 -38.4 1013.72C-38.4 1007.53 -38.2933 1001.56 -38.08 995.8C-37.8667 990.04 -37.5467 984.973 -37.12 980.6C-36.6933 976.12 -36.2133 972.867 -35.68 970.84C-29.3867 970.84 -19.8933 971.267 -7.2 972.12C5.49333 972.867 21.6533 973.24 41.28 973.24C54.6133 973.24 66.0267 973.027 75.52 972.6C85.0133 972.173 93.0133 971.8 99.52 971.48C106.133 971.053 111.573 970.84 115.84 970.84C116.373 973.187 116.853 976.707 117.28 981.4C117.707 985.987 118.027 991.213 118.24 997.08C118.453 1002.84 118.56 1008.76 118.56 1014.84C118.56 1020.81 118.4 1026.47 118.08 1031.8C117.76 1037.03 117.28 1041.4 116.64 1044.92C111.093 1045.77 106.293 1046.36 102.24 1046.68C98.1867 1046.89 94.24 1046.89 90.4 1046.68C86.6667 1046.36 82.4 1045.77 77.6 1044.92C76.32 1037.13 76.16 1029.19 77.12 1021.08H72V1032.44C72 1038.73 72.5333 1043.75 73.6 1047.48C74.7733 1051.21 76.2667 1053.99 78.08 1055.8C79.8933 1057.61 81.92 1058.84 84.16 1059.48C84.9067 1061.72 85.3867 1064.55 85.6 1067.96C85.92 1071.37 86.0267 1074.95 85.92 1078.68C85.92 1082.31 85.6533 1085.83 85.12 1089.24C84.5867 1092.65 83.8933 1095.48 83.04 1097.72C78.3467 1097.19 72.4267 1096.6 65.28 1095.96C58.24 1095.43 49.9733 1095.16 40.48 1095.16C30.56 1095.16 22.1333 1095.43 15.2 1095.96C8.37334 1096.6 2.61334 1097.19 -2.08 1097.72ZM117.289 1097.72C116.435 1095.48 115.742 1092.65 115.209 1089.24C114.675 1085.83 114.355 1082.31 114.249 1078.68C114.249 1074.95 114.355 1071.37 114.569 1067.96C114.889 1064.55 115.422 1061.72 116.169 1059.48C119.582 1058.73 122.195 1057.19 124.009 1054.84C125.929 1052.39 127.315 1049.45 128.169 1046.04C129.022 1042.52 129.715 1038.89 130.249 1035.16C130.889 1031.21 131.315 1027.43 131.529 1023.8C131.742 1020.07 131.315 1016.92 130.249 1014.36C129.289 1011.8 127.155 1010.25 123.849 1009.72C122.889 1007.8 122.195 1005.19 121.769 1001.88C121.342 998.573 121.129 995.053 121.129 991.32C121.235 987.48 121.555 983.8 122.089 980.28C122.622 976.653 123.422 973.56 124.489 971C128.862 971.427 134.249 971.853 140.649 972.28C147.049 972.6 155.582 972.76 166.249 972.76C173.502 972.76 181.342 972.493 189.769 971.96C198.302 971.32 207.049 970.733 216.009 970.2C224.969 969.667 233.715 969.4 242.249 969.4C249.502 969.4 255.209 970.947 259.369 974.04C263.635 977.027 266.835 980.973 268.969 985.88C271.102 990.787 272.489 996.067 273.129 1001.72C273.769 1007.37 274.035 1012.92 273.929 1018.36C273.929 1023.69 273.929 1028.33 273.929 1032.28C273.929 1038.57 274.515 1043.59 275.689 1047.32C276.862 1050.95 278.409 1053.67 280.329 1055.48C282.355 1057.29 284.489 1058.63 286.729 1059.48C287.475 1061.72 287.955 1064.55 288.169 1067.96C288.489 1071.37 288.595 1074.95 288.489 1078.68C288.489 1082.31 288.222 1085.83 287.689 1089.24C287.155 1092.65 286.462 1095.48 285.609 1097.72C281.235 1097.29 275.955 1096.76 269.769 1096.12C263.689 1095.48 256.329 1095.16 247.689 1095.16C238.835 1095.16 230.462 1095.48 222.569 1096.12C214.782 1096.76 208.702 1097.29 204.329 1097.72C203.902 1095.48 203.529 1092.65 203.209 1089.24C202.889 1085.83 202.675 1082.31 202.569 1078.68C202.462 1074.95 202.462 1071.37 202.569 1067.96C202.675 1064.55 202.889 1061.72 203.209 1059.48H207.689V1051.48H193.769V1059.48H198.249C198.675 1061.72 198.942 1064.55 199.049 1067.96C199.262 1071.37 199.315 1074.95 199.209 1078.68C199.102 1082.31 198.889 1085.83 198.569 1089.24C198.249 1092.65 197.769 1095.48 197.129 1097.72C194.249 1097.4 191.155 1097.03 187.849 1096.6C184.649 1096.28 180.862 1095.96 176.489 1095.64C172.222 1095.32 166.942 1095.16 160.649 1095.16C150.729 1095.16 142.195 1095.43 135.049 1095.96C127.902 1096.6 121.982 1097.19 117.289 1097.72ZM194.889 1027.96H206.409V1020.44H194.889V1027.96Z" fill="white" fill-opacity="0.03"/>
<path d="M57.76 1246.12C42.6133 1246.12 31.3067 1244.31 23.84 1240.68C16.48 1236.95 12.6933 1230.39 12.48 1221C11.0933 1224.95 10.6133 1228.63 11.04 1232.04C11.5733 1235.45 12.4267 1238.81 13.6 1242.12C2.18667 1242.44 -7.30666 1242.76 -14.88 1243.08C-22.4533 1243.51 -29.3333 1243.67 -35.52 1243.56C-37.12 1235.03 -38.0267 1226.6 -38.24 1218.28C-38.3467 1209.85 -37.7067 1200.95 -36.32 1191.56C-30.4533 1191.56 -24.5867 1192.15 -18.72 1193.32C-12.8533 1194.49 -7.30666 1196.15 -2.08 1198.28C3.14667 1200.31 7.62667 1202.81 11.36 1205.8L14.56 1202.44C10.9333 1199.56 6.98667 1197.16 2.72 1195.24C-1.44 1193.21 -5.65333 1191.51 -9.92 1190.12C-15.36 1188.2 -20.32 1185.75 -24.8 1182.76C-29.1733 1179.77 -32.64 1176.04 -35.2 1171.56C-37.76 1167.08 -39.04 1161.75 -39.04 1155.56C-39.04 1147.88 -37.28 1140.95 -33.76 1134.76C-30.24 1128.47 -24.48 1123.51 -16.48 1119.88C-8.37333 1116.15 2.50667 1114.28 16.16 1114.28C29.7067 1114.28 40.0533 1116.2 47.2 1120.04C54.3467 1123.77 58.0267 1130.71 58.24 1140.84C59.7333 1136.79 60.2133 1133 59.68 1129.48C59.1467 1125.96 58.2933 1122.23 57.12 1118.28C64.8 1118.17 71.2 1118.07 76.32 1117.96C81.44 1117.75 85.9733 1117.53 89.92 1117.32C93.8667 1117.11 97.8667 1117 101.92 1117C103.52 1124.68 104.373 1133 104.48 1141.96C104.693 1150.81 104.107 1159.88 102.72 1169.16C96.64 1169.05 91.2 1168.52 86.4 1167.56C81.7067 1166.49 77.3333 1164.95 73.28 1162.92C69.2267 1160.89 65.0667 1158.39 60.8 1155.4L57.92 1159.08C61.9733 1162.07 66.1333 1164.63 70.4 1166.76C74.6667 1168.79 78.6667 1170.65 82.4 1172.36C87.9467 1174.81 92.64 1177.53 96.48 1180.52C100.32 1183.51 103.253 1187.13 105.28 1191.4C107.413 1195.67 108.48 1201 108.48 1207.4C108.48 1216.25 106.933 1223.29 103.84 1228.52C100.853 1233.75 96.8533 1237.64 91.84 1240.2C86.8267 1242.65 81.3333 1244.25 75.36 1245C69.4933 1245.75 63.6267 1246.12 57.76 1246.12ZM114.815 1243.72C113.855 1241.48 113.108 1238.65 112.575 1235.24C112.042 1231.83 111.722 1228.31 111.615 1224.68C111.508 1220.95 111.615 1217.37 111.935 1213.96C112.362 1210.55 112.948 1207.72 113.695 1205.48C115.295 1204.84 116.842 1203.77 118.335 1202.28C119.935 1200.68 121.268 1198.17 122.335 1194.76C123.402 1191.24 123.935 1186.33 123.935 1180.04C123.935 1173.21 123.295 1168.09 122.015 1164.68C120.842 1161.16 119.402 1158.81 117.695 1157.64C116.095 1156.36 114.655 1155.72 113.375 1155.72C112.415 1153.8 111.722 1151.19 111.295 1147.88C110.868 1144.57 110.655 1141.05 110.655 1137.32C110.762 1133.48 111.082 1129.8 111.615 1126.28C112.148 1122.65 112.948 1119.56 114.015 1117C121.908 1117.32 129.002 1117.37 135.295 1117.16C141.695 1116.95 148.042 1116.63 154.335 1116.2C160.735 1115.77 167.668 1115.4 175.135 1115.08C182.708 1114.65 191.615 1114.44 201.855 1114.44C216.895 1114.44 229.588 1115.77 239.935 1118.44C250.282 1121 258.122 1125.75 263.455 1132.68C268.895 1139.51 271.615 1149.27 271.615 1161.96C271.615 1172.95 269.535 1181.75 265.375 1188.36C261.322 1194.97 255.455 1199.77 247.775 1202.76C240.095 1205.64 230.868 1207.08 220.095 1207.08C213.268 1207.08 207.828 1206.55 203.775 1205.48C199.722 1204.31 195.988 1201.75 192.575 1197.8L189.215 1200.84C191.988 1204.15 195.348 1206.71 199.295 1208.52C203.242 1210.23 208.148 1211.19 214.015 1211.4C214.975 1214.39 215.562 1217.8 215.775 1221.64C216.095 1225.48 215.988 1229.32 215.455 1233.16C215.028 1237 214.228 1240.47 213.055 1243.56C207.828 1243.13 200.575 1242.6 191.295 1241.96C182.122 1241.32 171.615 1241.05 159.775 1241.16C153.802 1241.16 147.935 1241.32 142.175 1241.64C136.415 1241.96 131.135 1242.28 126.335 1242.6C121.642 1243.03 117.802 1243.4 114.815 1243.72ZM189.215 1173.16H198.975V1162.44H189.215V1173.16ZM-2.08 1379.72C-2.93333 1377.48 -3.62666 1374.65 -4.16 1371.24C-4.69333 1367.83 -5.01333 1364.31 -5.12 1360.68C-5.12 1356.95 -5.01333 1353.37 -4.8 1349.96C-4.48 1346.55 -3.94667 1343.72 -3.2 1341.48C0.213336 1340.63 2.82667 1338.28 4.64 1334.44C6.45333 1330.49 7.36 1323.83 7.36 1314.44V1302.92H2.24C3.2 1311.03 3.04 1319.03 1.76 1326.92C-2.4 1327.77 -6.34666 1328.36 -10.08 1328.68C-13.8133 1328.89 -17.76 1328.89 -21.92 1328.68C-26.08 1328.36 -30.9333 1327.77 -36.48 1326.92C-37.12 1323.19 -37.6 1318.6 -37.92 1313.16C-38.24 1307.61 -38.4 1301.8 -38.4 1295.72C-38.4 1289.53 -38.2933 1283.56 -38.08 1277.8C-37.8667 1272.04 -37.5467 1266.97 -37.12 1262.6C-36.6933 1258.12 -36.2133 1254.87 -35.68 1252.84C-29.3867 1252.84 -19.8933 1253.27 -7.2 1254.12C5.49333 1254.87 21.6533 1255.24 41.28 1255.24C54.6133 1255.24 66.0267 1255.03 75.52 1254.6C85.0133 1254.17 93.0133 1253.8 99.52 1253.48C106.133 1253.05 111.573 1252.84 115.84 1252.84C116.373 1255.19 116.853 1258.71 117.28 1263.4C117.707 1267.99 118.027 1273.21 118.24 1279.08C118.453 1284.84 118.56 1290.76 118.56 1296.84C118.56 1302.81 118.4 1308.47 118.08 1313.8C117.76 1319.03 117.28 1323.4 116.64 1326.92C111.093 1327.77 106.293 1328.36 102.24 1328.68C98.1867 1328.89 94.24 1328.89 90.4 1328.68C86.6667 1328.36 82.4 1327.77 77.6 1326.92C76.32 1319.13 76.16 1311.19 77.12 1303.08H72V1314.44C72 1320.73 72.5333 1325.75 73.6 1329.48C74.7733 1333.21 76.2667 1335.99 78.08 1337.8C79.8933 1339.61 81.92 1340.84 84.16 1341.48C84.9067 1343.72 85.3867 1346.55 85.6 1349.96C85.92 1353.37 86.0267 1356.95 85.92 1360.68C85.92 1364.31 85.6533 1367.83 85.12 1371.24C84.5867 1374.65 83.8933 1377.48 83.04 1379.72C78.3467 1379.19 72.4267 1378.6 65.28 1377.96C58.24 1377.43 49.9733 1377.16 40.48 1377.16C30.56 1377.16 22.1333 1377.43 15.2 1377.96C8.37334 1378.6 2.61334 1379.19 -2.08 1379.72ZM117.289 1379.72C116.435 1377.48 115.742 1374.65 115.209 1371.24C114.675 1367.83 114.355 1364.31 114.249 1360.68C114.249 1356.95 114.355 1353.37 114.569 1349.96C114.889 1346.55 115.422 1343.72 116.169 1341.48C119.582 1340.73 122.195 1339.19 124.009 1336.84C125.929 1334.39 127.315 1331.45 128.169 1328.04C129.022 1324.52 129.715 1320.89 130.249 1317.16C130.889 1313.21 131.315 1309.43 131.529 1305.8C131.742 1302.07 131.315 1298.92 130.249 1296.36C129.289 1293.8 127.155 1292.25 123.849 1291.72C122.889 1289.8 122.195 1287.19 121.769 1283.88C121.342 1280.57 121.129 1277.05 121.129 1273.32C121.235 1269.48 121.555 1265.8 122.089 1262.28C122.622 1258.65 123.422 1255.56 124.489 1253C128.862 1253.43 134.249 1253.85 140.649 1254.28C147.049 1254.6 155.582 1254.76 166.249 1254.76C173.502 1254.76 181.342 1254.49 189.769 1253.96C198.302 1253.32 207.049 1252.73 216.009 1252.2C224.969 1251.67 233.715 1251.4 242.249 1251.4C249.502 1251.4 255.209 1252.95 259.369 1256.04C263.635 1259.03 266.835 1262.97 268.969 1267.88C271.102 1272.79 272.489 1278.07 273.129 1283.72C273.769 1289.37 274.035 1294.92 273.929 1300.36C273.929 1305.69 273.929 1310.33 273.929 1314.28C273.929 1320.57 274.515 1325.59 275.689 1329.32C276.862 1332.95 278.409 1335.67 280.329 1337.48C282.355 1339.29 284.489 1340.63 286.729 1341.48C287.475 1343.72 287.955 1346.55 288.169 1349.96C288.489 1353.37 288.595 1356.95 288.489 1360.68C288.489 1364.31 288.222 1367.83 287.689 1371.24C287.155 1374.65 286.462 1377.48 285.609 1379.72C281.235 1379.29 275.955 1378.76 269.769 1378.12C263.689 1377.48 256.329 1377.16 247.689 1377.16C238.835 1377.16 230.462 1377.48 222.569 1378.12C214.782 1378.76 208.702 1379.29 204.329 1379.72C203.902 1377.48 203.529 1374.65 203.209 1371.24C202.889 1367.83 202.675 1364.31 202.569 1360.68C202.462 1356.95 202.462 1353.37 202.569 1349.96C202.675 1346.55 202.889 1343.72 203.209 1341.48H207.689V1333.48H193.769V1341.48H198.249C198.675 1343.72 198.942 1346.55 199.049 1349.96C199.262 1353.37 199.315 1356.95 199.209 1360.68C199.102 1364.31 198.889 1367.83 198.569 1371.24C198.249 1374.65 197.769 1377.48 197.129 1379.72C194.249 1379.4 191.155 1379.03 187.849 1378.6C184.649 1378.28 180.862 1377.96 176.489 1377.64C172.222 1377.32 166.942 1377.16 160.649 1377.16C150.729 1377.16 142.195 1377.43 135.049 1377.96C127.902 1378.6 121.982 1379.19 117.289 1379.72ZM194.889 1309.96H206.409V1302.44H194.889V1309.96Z" fill="white" fill-opacity="0.03"/>
</g>
<g clip-path="url(#clip2_327_20)">
<path d="M1709.76 118.12C1694.61 118.12 1683.31 116.307 1675.84 112.68C1668.48 108.947 1664.69 102.387 1664.48 93C1663.09 96.9467 1662.61 100.627 1663.04 104.04C1663.57 107.453 1664.43 110.813 1665.6 114.12C1654.19 114.44 1644.69 114.76 1637.12 115.08C1629.55 115.507 1622.67 115.667 1616.48 115.56C1614.88 107.027 1613.97 98.6 1613.76 90.28C1613.65 81.8533 1614.29 72.9467 1615.68 63.56C1621.55 63.56 1627.41 64.1467 1633.28 65.32C1639.15 66.4933 1644.69 68.1467 1649.92 70.28C1655.15 72.3067 1659.63 74.8133 1663.36 77.8L1666.56 74.44C1662.93 71.56 1658.99 69.16 1654.72 67.24C1650.56 65.2133 1646.35 63.5067 1642.08 62.12C1636.64 60.2 1631.68 57.7467 1627.2 54.76C1622.83 51.7733 1619.36 48.04 1616.8 43.56C1614.24 39.08 1612.96 33.7467 1612.96 27.56C1612.96 19.88 1614.72 12.9467 1618.24 6.75999C1621.76 0.46666 1627.52 -4.49334 1635.52 -8.12C1643.63 -11.8533 1654.51 -13.72 1668.16 -13.72C1681.71 -13.72 1692.05 -11.8 1699.2 -7.96001C1706.35 -4.22667 1710.03 2.70666 1710.24 12.84C1711.73 8.78666 1712.21 4.99999 1711.68 1.48C1711.15 -2.04 1710.29 -5.77334 1709.12 -9.72C1716.8 -9.82667 1723.2 -9.93334 1728.32 -10.04C1733.44 -10.2533 1737.97 -10.4667 1741.92 -10.68C1745.87 -10.8933 1749.87 -11 1753.92 -11C1755.52 -3.32 1756.37 5 1756.48 13.96C1756.69 22.8133 1756.11 31.88 1754.72 41.16C1748.64 41.0533 1743.2 40.52 1738.4 39.56C1733.71 38.4933 1729.33 36.9467 1725.28 34.92C1721.23 32.8933 1717.07 30.3867 1712.8 27.4L1709.92 31.08C1713.97 34.0667 1718.13 36.6267 1722.4 38.76C1726.67 40.7867 1730.67 42.6533 1734.4 44.36C1739.95 46.8133 1744.64 49.5333 1748.48 52.52C1752.32 55.5067 1755.25 59.1333 1757.28 63.4C1759.41 67.6667 1760.48 73 1760.48 79.4C1760.48 88.2533 1758.93 95.2933 1755.84 100.52C1752.85 105.747 1748.85 109.64 1743.84 112.2C1738.83 114.653 1733.33 116.253 1727.36 117C1721.49 117.747 1715.63 118.12 1709.76 118.12ZM1766.82 115.72C1765.86 113.48 1765.11 110.653 1764.58 107.24C1764.04 103.827 1763.72 100.307 1763.62 96.68C1763.51 92.9467 1763.62 89.3733 1763.94 85.96C1764.36 82.5467 1764.95 79.72 1765.7 77.48C1767.3 76.84 1768.84 75.7733 1770.34 74.28C1771.94 72.68 1773.27 70.1733 1774.34 66.76C1775.4 63.24 1775.94 58.3333 1775.94 52.04C1775.94 45.2133 1775.3 40.0933 1774.02 36.68C1772.84 33.16 1771.4 30.8133 1769.7 29.64C1768.1 28.36 1766.66 27.72 1765.38 27.72C1764.42 25.8 1763.72 23.1867 1763.3 19.88C1762.87 16.5733 1762.66 13.0533 1762.66 9.32C1762.76 5.48 1763.08 1.8 1763.62 -1.72C1764.15 -5.34667 1764.95 -8.44001 1766.02 -11C1773.91 -10.68 1781 -10.6267 1787.3 -10.84C1793.7 -11.0533 1800.04 -11.3733 1806.34 -11.8C1812.74 -12.2267 1819.67 -12.6 1827.14 -12.92C1834.71 -13.3467 1843.62 -13.56 1853.86 -13.56C1868.9 -13.56 1881.59 -12.2267 1891.94 -9.56001C1902.28 -7.00001 1910.12 -2.25334 1915.46 4.67999C1920.9 11.5067 1923.62 21.2667 1923.62 33.96C1923.62 44.9467 1921.54 53.7467 1917.38 60.36C1913.32 66.9733 1907.46 71.7733 1899.78 74.76C1892.1 77.64 1882.87 79.08 1872.1 79.08C1865.27 79.08 1859.83 78.5467 1855.78 77.48C1851.72 76.3067 1847.99 73.7467 1844.58 69.8L1841.22 72.84C1843.99 76.1467 1847.35 78.7067 1851.3 80.52C1855.24 82.2267 1860.15 83.1867 1866.02 83.4C1866.98 86.3867 1867.56 89.8 1867.78 93.64C1868.1 97.48 1867.99 101.32 1867.46 105.16C1867.03 109 1866.23 112.467 1865.06 115.56C1859.83 115.133 1852.58 114.6 1843.3 113.96C1834.12 113.32 1823.62 113.053 1811.78 113.16C1805.8 113.16 1799.94 113.32 1794.18 113.64C1788.42 113.96 1783.14 114.28 1778.34 114.6C1773.64 115.027 1769.8 115.4 1766.82 115.72ZM1841.22 45.16H1850.98V34.44H1841.22V45.16ZM1649.92 251.72C1649.07 249.48 1648.37 246.653 1647.84 243.24C1647.31 239.827 1646.99 236.307 1646.88 232.68C1646.88 228.947 1646.99 225.373 1647.2 221.96C1647.52 218.547 1648.05 215.72 1648.8 213.48C1652.21 212.627 1654.83 210.28 1656.64 206.44C1658.45 202.493 1659.36 195.827 1659.36 186.44V174.92H1654.24C1655.2 183.027 1655.04 191.027 1653.76 198.92C1649.6 199.773 1645.65 200.36 1641.92 200.68C1638.19 200.893 1634.24 200.893 1630.08 200.68C1625.92 200.36 1621.07 199.773 1615.52 198.92C1614.88 195.187 1614.4 190.6 1614.08 185.16C1613.76 179.613 1613.6 173.8 1613.6 167.72C1613.6 161.533 1613.71 155.56 1613.92 149.8C1614.13 144.04 1614.45 138.973 1614.88 134.6C1615.31 130.12 1615.79 126.867 1616.32 124.84C1622.61 124.84 1632.11 125.267 1644.8 126.12C1657.49 126.867 1673.65 127.24 1693.28 127.24C1706.61 127.24 1718.03 127.027 1727.52 126.6C1737.01 126.173 1745.01 125.8 1751.52 125.48C1758.13 125.053 1763.57 124.84 1767.84 124.84C1768.37 127.187 1768.85 130.707 1769.28 135.4C1769.71 139.987 1770.03 145.213 1770.24 151.08C1770.45 156.84 1770.56 162.76 1770.56 168.84C1770.56 174.813 1770.4 180.467 1770.08 185.8C1769.76 191.027 1769.28 195.4 1768.64 198.92C1763.09 199.773 1758.29 200.36 1754.24 200.68C1750.19 200.893 1746.24 200.893 1742.4 200.68C1738.67 200.36 1734.4 199.773 1729.6 198.92C1728.32 191.133 1728.16 183.187 1729.12 175.08H1724V186.44C1724 192.733 1724.53 197.747 1725.6 201.48C1726.77 205.213 1728.27 207.987 1730.08 209.8C1731.89 211.613 1733.92 212.84 1736.16 213.48C1736.91 215.72 1737.39 218.547 1737.6 221.96C1737.92 225.373 1738.03 228.947 1737.92 232.68C1737.92 236.307 1737.65 239.827 1737.12 243.24C1736.59 246.653 1735.89 249.48 1735.04 251.72C1730.35 251.187 1724.43 250.6 1717.28 249.96C1710.24 249.427 1701.97 249.16 1692.48 249.16C1682.56 249.16 1674.13 249.427 1667.2 249.96C1660.37 250.6 1654.61 251.187 1649.92 251.72ZM1769.29 251.72C1768.44 249.48 1767.74 246.653 1767.21 243.24C1766.68 239.827 1766.36 236.307 1766.25 232.68C1766.25 228.947 1766.36 225.373 1766.57 221.96C1766.89 218.547 1767.42 215.72 1768.17 213.48C1771.58 212.733 1774.2 211.187 1776.01 208.84C1777.93 206.387 1779.32 203.453 1780.17 200.04C1781.02 196.52 1781.72 192.893 1782.25 189.16C1782.89 185.213 1783.32 181.427 1783.53 177.8C1783.74 174.067 1783.32 170.92 1782.25 168.36C1781.29 165.8 1779.16 164.253 1775.85 163.72C1774.89 161.8 1774.2 159.187 1773.77 155.88C1773.34 152.573 1773.13 149.053 1773.13 145.32C1773.24 141.48 1773.56 137.8 1774.09 134.28C1774.62 130.653 1775.42 127.56 1776.49 125C1780.86 125.427 1786.25 125.853 1792.65 126.28C1799.05 126.6 1807.58 126.76 1818.25 126.76C1825.5 126.76 1833.34 126.493 1841.77 125.96C1850.3 125.32 1859.05 124.733 1868.01 124.2C1876.97 123.667 1885.72 123.4 1894.25 123.4C1901.5 123.4 1907.21 124.947 1911.37 128.04C1915.64 131.027 1918.84 134.973 1920.97 139.88C1923.1 144.787 1924.49 150.067 1925.13 155.72C1925.77 161.373 1926.04 166.92 1925.93 172.36C1925.93 177.693 1925.93 182.333 1925.93 186.28C1925.93 192.573 1926.52 197.587 1927.69 201.32C1928.86 204.947 1930.41 207.667 1932.33 209.48C1934.36 211.293 1936.49 212.627 1938.73 213.48C1939.48 215.72 1939.96 218.547 1940.17 221.96C1940.49 225.373 1940.6 228.947 1940.49 232.68C1940.49 236.307 1940.22 239.827 1939.69 243.24C1939.16 246.653 1938.46 249.48 1937.61 251.72C1933.24 251.293 1927.96 250.76 1921.77 250.12C1915.69 249.48 1908.33 249.16 1899.69 249.16C1890.84 249.16 1882.46 249.48 1874.57 250.12C1866.78 250.76 1860.7 251.293 1856.33 251.72C1855.9 249.48 1855.53 246.653 1855.21 243.24C1854.89 239.827 1854.68 236.307 1854.57 232.68C1854.46 228.947 1854.46 225.373 1854.57 221.96C1854.68 218.547 1854.89 215.72 1855.21 213.48H1859.69V205.48H1845.77V213.48H1850.25C1850.68 215.72 1850.94 218.547 1851.05 221.96C1851.26 225.373 1851.32 228.947 1851.21 232.68C1851.1 236.307 1850.89 239.827 1850.57 243.24C1850.25 246.653 1849.77 249.48 1849.13 251.72C1846.25 251.4 1843.16 251.027 1839.85 250.6C1836.65 250.28 1832.86 249.96 1828.49 249.64C1824.22 249.32 1818.94 249.16 1812.65 249.16C1802.73 249.16 1794.2 249.427 1787.05 249.96C1779.9 250.6 1773.98 251.187 1769.29 251.72ZM1846.89 181.96H1858.41V174.44H1846.89V181.96Z" fill="white" fill-opacity="0.03"/>
<path d="M1709.76 391.12C1694.61 391.12 1683.31 389.307 1675.84 385.68C1668.48 381.947 1664.69 375.387 1664.48 366C1663.09 369.947 1662.61 373.627 1663.04 377.04C1663.57 380.453 1664.43 383.813 1665.6 387.12C1654.19 387.44 1644.69 387.76 1637.12 388.08C1629.55 388.507 1622.67 388.667 1616.48 388.56C1614.88 380.027 1613.97 371.6 1613.76 363.28C1613.65 354.853 1614.29 345.947 1615.68 336.56C1621.55 336.56 1627.41 337.147 1633.28 338.32C1639.15 339.493 1644.69 341.147 1649.92 343.28C1655.15 345.307 1659.63 347.813 1663.36 350.8L1666.56 347.44C1662.93 344.56 1658.99 342.16 1654.72 340.24C1650.56 338.213 1646.35 336.507 1642.08 335.12C1636.64 333.2 1631.68 330.747 1627.2 327.76C1622.83 324.773 1619.36 321.04 1616.8 316.56C1614.24 312.08 1612.96 306.747 1612.96 300.56C1612.96 292.88 1614.72 285.947 1618.24 279.76C1621.76 273.467 1627.52 268.507 1635.52 264.88C1643.63 261.147 1654.51 259.28 1668.16 259.28C1681.71 259.28 1692.05 261.2 1699.2 265.04C1706.35 268.773 1710.03 275.707 1710.24 285.84C1711.73 281.787 1712.21 278 1711.68 274.48C1711.15 270.96 1710.29 267.227 1709.12 263.28C1716.8 263.173 1723.2 263.067 1728.32 262.96C1733.44 262.747 1737.97 262.533 1741.92 262.32C1745.87 262.107 1749.87 262 1753.92 262C1755.52 269.68 1756.37 278 1756.48 286.96C1756.69 295.813 1756.11 304.88 1754.72 314.16C1748.64 314.053 1743.2 313.52 1738.4 312.56C1733.71 311.493 1729.33 309.947 1725.28 307.92C1721.23 305.893 1717.07 303.387 1712.8 300.4L1709.92 304.08C1713.97 307.067 1718.13 309.627 1722.4 311.76C1726.67 313.787 1730.67 315.653 1734.4 317.36C1739.95 319.813 1744.64 322.533 1748.48 325.52C1752.32 328.507 1755.25 332.133 1757.28 336.4C1759.41 340.667 1760.48 346 1760.48 352.4C1760.48 361.253 1758.93 368.293 1755.84 373.52C1752.85 378.747 1748.85 382.64 1743.84 385.2C1738.83 387.653 1733.33 389.253 1727.36 390C1721.49 390.747 1715.63 391.12 1709.76 391.12ZM1766.82 388.72C1765.86 386.48 1765.11 383.653 1764.58 380.24C1764.04 376.827 1763.72 373.307 1763.62 369.68C1763.51 365.947 1763.62 362.373 1763.94 358.96C1764.36 355.547 1764.95 352.72 1765.7 350.48C1767.3 349.84 1768.84 348.773 1770.34 347.28C1771.94 345.68 1773.27 343.173 1774.34 339.76C1775.4 336.24 1775.94 331.333 1775.94 325.04C1775.94 318.213 1775.3 313.093 1774.02 309.68C1772.84 306.16 1771.4 303.813 1769.7 302.64C1768.1 301.36 1766.66 300.72 1765.38 300.72C1764.42 298.8 1763.72 296.187 1763.3 292.88C1762.87 289.573 1762.66 286.053 1762.66 282.32C1762.76 278.48 1763.08 274.8 1763.62 271.28C1764.15 267.653 1764.95 264.56 1766.02 262C1773.91 262.32 1781 262.373 1787.3 262.16C1793.7 261.947 1800.04 261.627 1806.34 261.2C1812.74 260.773 1819.67 260.4 1827.14 260.08C1834.71 259.653 1843.62 259.44 1853.86 259.44C1868.9 259.44 1881.59 260.773 1891.94 263.44C1902.28 266 1910.12 270.747 1915.46 277.68C1920.9 284.507 1923.62 294.267 1923.62 306.96C1923.62 317.947 1921.54 326.747 1917.38 333.36C1913.32 339.973 1907.46 344.773 1899.78 347.76C1892.1 350.64 1882.87 352.08 1872.1 352.08C1865.27 352.08 1859.83 351.547 1855.78 350.48C1851.72 349.307 1847.99 346.747 1844.58 342.8L1841.22 345.84C1843.99 349.147 1847.35 351.707 1851.3 353.52C1855.24 355.227 1860.15 356.187 1866.02 356.4C1866.98 359.387 1867.56 362.8 1867.78 366.64C1868.1 370.48 1867.99 374.32 1867.46 378.16C1867.03 382 1866.23 385.467 1865.06 388.56C1859.83 388.133 1852.58 387.6 1843.3 386.96C1834.12 386.32 1823.62 386.053 1811.78 386.16C1805.8 386.16 1799.94 386.32 1794.18 386.64C1788.42 386.96 1783.14 387.28 1778.34 387.6C1773.64 388.027 1769.8 388.4 1766.82 388.72ZM1841.22 318.16H1850.98V307.44H1841.22V318.16ZM1649.92 524.72C1649.07 522.48 1648.37 519.653 1647.84 516.24C1647.31 512.827 1646.99 509.307 1646.88 505.68C1646.88 501.947 1646.99 498.373 1647.2 494.96C1647.52 491.547 1648.05 488.72 1648.8 486.48C1652.21 485.627 1654.83 483.28 1656.64 479.44C1658.45 475.493 1659.36 468.827 1659.36 459.44V447.92H1654.24C1655.2 456.027 1655.04 464.027 1653.76 471.92C1649.6 472.773 1645.65 473.36 1641.92 473.68C1638.19 473.893 1634.24 473.893 1630.08 473.68C1625.92 473.36 1621.07 472.773 1615.52 471.92C1614.88 468.187 1614.4 463.6 1614.08 458.16C1613.76 452.613 1613.6 446.8 1613.6 440.72C1613.6 434.533 1613.71 428.56 1613.92 422.8C1614.13 417.04 1614.45 411.973 1614.88 407.6C1615.31 403.12 1615.79 399.867 1616.32 397.84C1622.61 397.84 1632.11 398.267 1644.8 399.12C1657.49 399.867 1673.65 400.24 1693.28 400.24C1706.61 400.24 1718.03 400.027 1727.52 399.6C1737.01 399.173 1745.01 398.8 1751.52 398.48C1758.13 398.053 1763.57 397.84 1767.84 397.84C1768.37 400.187 1768.85 403.707 1769.28 408.4C1769.71 412.987 1770.03 418.213 1770.24 424.08C1770.45 429.84 1770.56 435.76 1770.56 441.84C1770.56 447.813 1770.4 453.467 1770.08 458.8C1769.76 464.027 1769.28 468.4 1768.64 471.92C1763.09 472.773 1758.29 473.36 1754.24 473.68C1750.19 473.893 1746.24 473.893 1742.4 473.68C1738.67 473.36 1734.4 472.773 1729.6 471.92C1728.32 464.133 1728.16 456.187 1729.12 448.08H1724V459.44C1724 465.733 1724.53 470.747 1725.6 474.48C1726.77 478.213 1728.27 480.987 1730.08 482.8C1731.89 484.613 1733.92 485.84 1736.16 486.48C1736.91 488.72 1737.39 491.547 1737.6 494.96C1737.92 498.373 1738.03 501.947 1737.92 505.68C1737.92 509.307 1737.65 512.827 1737.12 516.24C1736.59 519.653 1735.89 522.48 1735.04 524.72C1730.35 524.187 1724.43 523.6 1717.28 522.96C1710.24 522.427 1701.97 522.16 1692.48 522.16C1682.56 522.16 1674.13 522.427 1667.2 522.96C1660.37 523.6 1654.61 524.187 1649.92 524.72ZM1769.29 524.72C1768.44 522.48 1767.74 519.653 1767.21 516.24C1766.68 512.827 1766.36 509.307 1766.25 505.68C1766.25 501.947 1766.36 498.373 1766.57 494.96C1766.89 491.547 1767.42 488.72 1768.17 486.48C1771.58 485.733 1774.2 484.187 1776.01 481.84C1777.93 479.387 1779.32 476.453 1780.17 473.04C1781.02 469.52 1781.72 465.893 1782.25 462.16C1782.89 458.213 1783.32 454.427 1783.53 450.8C1783.74 447.067 1783.32 443.92 1782.25 441.36C1781.29 438.8 1779.16 437.253 1775.85 436.72C1774.89 434.8 1774.2 432.187 1773.77 428.88C1773.34 425.573 1773.13 422.053 1773.13 418.32C1773.24 414.48 1773.56 410.8 1774.09 407.28C1774.62 403.653 1775.42 400.56 1776.49 398C1780.86 398.427 1786.25 398.853 1792.65 399.28C1799.05 399.6 1807.58 399.76 1818.25 399.76C1825.5 399.76 1833.34 399.493 1841.77 398.96C1850.3 398.32 1859.05 397.733 1868.01 397.2C1876.97 396.667 1885.72 396.4 1894.25 396.4C1901.5 396.4 1907.21 397.947 1911.37 401.04C1915.64 404.027 1918.84 407.973 1920.97 412.88C1923.1 417.787 1924.49 423.067 1925.13 428.72C1925.77 434.373 1926.04 439.92 1925.93 445.36C1925.93 450.693 1925.93 455.333 1925.93 459.28C1925.93 465.573 1926.52 470.587 1927.69 474.32C1928.86 477.947 1930.41 480.667 1932.33 482.48C1934.36 484.293 1936.49 485.627 1938.73 486.48C1939.48 488.72 1939.96 491.547 1940.17 494.96C1940.49 498.373 1940.6 501.947 1940.49 505.68C1940.49 509.307 1940.22 512.827 1939.69 516.24C1939.16 519.653 1938.46 522.48 1937.61 524.72C1933.24 524.293 1927.96 523.76 1921.77 523.12C1915.69 522.48 1908.33 522.16 1899.69 522.16C1890.84 522.16 1882.46 522.48 1874.57 523.12C1866.78 523.76 1860.7 524.293 1856.33 524.72C1855.9 522.48 1855.53 519.653 1855.21 516.24C1854.89 512.827 1854.68 509.307 1854.57 505.68C1854.46 501.947 1854.46 498.373 1854.57 494.96C1854.68 491.547 1854.89 488.72 1855.21 486.48H1859.69V478.48H1845.77V486.48H1850.25C1850.68 488.72 1850.94 491.547 1851.05 494.96C1851.26 498.373 1851.32 501.947 1851.21 505.68C1851.1 509.307 1850.89 512.827 1850.57 516.24C1850.25 519.653 1849.77 522.48 1849.13 524.72C1846.25 524.4 1843.16 524.027 1839.85 523.6C1836.65 523.28 1832.86 522.96 1828.49 522.64C1824.22 522.32 1818.94 522.16 1812.65 522.16C1802.73 522.16 1794.2 522.427 1787.05 522.96C1779.9 523.6 1773.98 524.187 1769.29 524.72ZM1846.89 454.96H1858.41V447.44H1846.89V454.96Z" fill="white" fill-opacity="0.03"/>
<path d="M1709.76 664.12C1694.61 664.12 1683.31 662.307 1675.84 658.68C1668.48 654.947 1664.69 648.387 1664.48 639C1663.09 642.947 1662.61 646.627 1663.04 650.04C1663.57 653.453 1664.43 656.813 1665.6 660.12C1654.19 660.44 1644.69 660.76 1637.12 661.08C1629.55 661.507 1622.67 661.667 1616.48 661.56C1614.88 653.027 1613.97 644.6 1613.76 636.28C1613.65 627.853 1614.29 618.947 1615.68 609.56C1621.55 609.56 1627.41 610.147 1633.28 611.32C1639.15 612.493 1644.69 614.147 1649.92 616.28C1655.15 618.307 1659.63 620.813 1663.36 623.8L1666.56 620.44C1662.93 617.56 1658.99 615.16 1654.72 613.24C1650.56 611.213 1646.35 609.507 1642.08 608.12C1636.64 606.2 1631.68 603.747 1627.2 600.76C1622.83 597.773 1619.36 594.04 1616.8 589.56C1614.24 585.08 1612.96 579.747 1612.96 573.56C1612.96 565.88 1614.72 558.947 1618.24 552.76C1621.76 546.467 1627.52 541.507 1635.52 537.88C1643.63 534.147 1654.51 532.28 1668.16 532.28C1681.71 532.28 1692.05 534.2 1699.2 538.04C1706.35 541.773 1710.03 548.707 1710.24 558.84C1711.73 554.787 1712.21 551 1711.68 547.48C1711.15 543.96 1710.29 540.227 1709.12 536.28C1716.8 536.173 1723.2 536.067 1728.32 535.96C1733.44 535.747 1737.97 535.533 1741.92 535.32C1745.87 535.107 1749.87 535 1753.92 535C1755.52 542.68 1756.37 551 1756.48 559.96C1756.69 568.813 1756.11 577.88 1754.72 587.16C1748.64 587.053 1743.2 586.52 1738.4 585.56C1733.71 584.493 1729.33 582.947 1725.28 580.92C1721.23 578.893 1717.07 576.387 1712.8 573.4L1709.92 577.08C1713.97 580.067 1718.13 582.627 1722.4 584.76C1726.67 586.787 1730.67 588.653 1734.4 590.36C1739.95 592.813 1744.64 595.533 1748.48 598.52C1752.32 601.507 1755.25 605.133 1757.28 609.4C1759.41 613.667 1760.48 619 1760.48 625.4C1760.48 634.253 1758.93 641.293 1755.84 646.52C1752.85 651.747 1748.85 655.64 1743.84 658.2C1738.83 660.653 1733.33 662.253 1727.36 663C1721.49 663.747 1715.63 664.12 1709.76 664.12ZM1766.82 661.72C1765.86 659.48 1765.11 656.653 1764.58 653.24C1764.04 649.827 1763.72 646.307 1763.62 642.68C1763.51 638.947 1763.62 635.373 1763.94 631.96C1764.36 628.547 1764.95 625.72 1765.7 623.48C1767.3 622.84 1768.84 621.773 1770.34 620.28C1771.94 618.68 1773.27 616.173 1774.34 612.76C1775.4 609.24 1775.94 604.333 1775.94 598.04C1775.94 591.213 1775.3 586.093 1774.02 582.68C1772.84 579.16 1771.4 576.813 1769.7 575.64C1768.1 574.36 1766.66 573.72 1765.38 573.72C1764.42 571.8 1763.72 569.187 1763.3 565.88C1762.87 562.573 1762.66 559.053 1762.66 555.32C1762.76 551.48 1763.08 547.8 1763.62 544.28C1764.15 540.653 1764.95 537.56 1766.02 535C1773.91 535.32 1781 535.373 1787.3 535.16C1793.7 534.947 1800.04 534.627 1806.34 534.2C1812.74 533.773 1819.67 533.4 1827.14 533.08C1834.71 532.653 1843.62 532.44 1853.86 532.44C1868.9 532.44 1881.59 533.773 1891.94 536.44C1902.28 539 1910.12 543.747 1915.46 550.68C1920.9 557.507 1923.62 567.267 1923.62 579.96C1923.62 590.947 1921.54 599.747 1917.38 606.36C1913.32 612.973 1907.46 617.773 1899.78 620.76C1892.1 623.64 1882.87 625.08 1872.1 625.08C1865.27 625.08 1859.83 624.547 1855.78 623.48C1851.72 622.307 1847.99 619.747 1844.58 615.8L1841.22 618.84C1843.99 622.147 1847.35 624.707 1851.3 626.52C1855.24 628.227 1860.15 629.187 1866.02 629.4C1866.98 632.387 1867.56 635.8 1867.78 639.64C1868.1 643.48 1867.99 647.32 1867.46 651.16C1867.03 655 1866.23 658.467 1865.06 661.56C1859.83 661.133 1852.58 660.6 1843.3 659.96C1834.12 659.32 1823.62 659.053 1811.78 659.16C1805.8 659.16 1799.94 659.32 1794.18 659.64C1788.42 659.96 1783.14 660.28 1778.34 660.6C1773.64 661.027 1769.8 661.4 1766.82 661.72ZM1841.22 591.16H1850.98V580.44H1841.22V591.16ZM1649.92 797.72C1649.07 795.48 1648.37 792.653 1647.84 789.24C1647.31 785.827 1646.99 782.307 1646.88 778.68C1646.88 774.947 1646.99 771.373 1647.2 767.96C1647.52 764.547 1648.05 761.72 1648.8 759.48C1652.21 758.627 1654.83 756.28 1656.64 752.44C1658.45 748.493 1659.36 741.827 1659.36 732.44V720.92H1654.24C1655.2 729.027 1655.04 737.027 1653.76 744.92C1649.6 745.773 1645.65 746.36 1641.92 746.68C1638.19 746.893 1634.24 746.893 1630.08 746.68C1625.92 746.36 1621.07 745.773 1615.52 744.92C1614.88 741.187 1614.4 736.6 1614.08 731.16C1613.76 725.613 1613.6 719.8 1613.6 713.72C1613.6 707.533 1613.71 701.56 1613.92 695.8C1614.13 690.04 1614.45 684.973 1614.88 680.6C1615.31 676.12 1615.79 672.867 1616.32 670.84C1622.61 670.84 1632.11 671.267 1644.8 672.12C1657.49 672.867 1673.65 673.24 1693.28 673.24C1706.61 673.24 1718.03 673.027 1727.52 672.6C1737.01 672.173 1745.01 671.8 1751.52 671.48C1758.13 671.053 1763.57 670.84 1767.84 670.84C1768.37 673.187 1768.85 676.707 1769.28 681.4C1769.71 685.987 1770.03 691.213 1770.24 697.08C1770.45 702.84 1770.56 708.76 1770.56 714.84C1770.56 720.813 1770.4 726.467 1770.08 731.8C1769.76 737.027 1769.28 741.4 1768.64 744.92C1763.09 745.773 1758.29 746.36 1754.24 746.68C1750.19 746.893 1746.24 746.893 1742.4 746.68C1738.67 746.36 1734.4 745.773 1729.6 744.92C1728.32 737.133 1728.16 729.187 1729.12 721.08H1724V732.44C1724 738.733 1724.53 743.747 1725.6 747.48C1726.77 751.213 1728.27 753.987 1730.08 755.8C1731.89 757.613 1733.92 758.84 1736.16 759.48C1736.91 761.72 1737.39 764.547 1737.6 767.96C1737.92 771.373 1738.03 774.947 1737.92 778.68C1737.92 782.307 1737.65 785.827 1737.12 789.24C1736.59 792.653 1735.89 795.48 1735.04 797.72C1730.35 797.187 1724.43 796.6 1717.28 795.96C1710.24 795.427 1701.97 795.16 1692.48 795.16C1682.56 795.16 1674.13 795.427 1667.2 795.96C1660.37 796.6 1654.61 797.187 1649.92 797.72ZM1769.29 797.72C1768.44 795.48 1767.74 792.653 1767.21 789.24C1766.68 785.827 1766.36 782.307 1766.25 778.68C1766.25 774.947 1766.36 771.373 1766.57 767.96C1766.89 764.547 1767.42 761.72 1768.17 759.48C1771.58 758.733 1774.2 757.187 1776.01 754.84C1777.93 752.387 1779.32 749.453 1780.17 746.04C1781.02 742.52 1781.72 738.893 1782.25 735.16C1782.89 731.213 1783.32 727.427 1783.53 723.8C1783.74 720.067 1783.32 716.92 1782.25 714.36C1781.29 711.8 1779.16 710.253 1775.85 709.72C1774.89 707.8 1774.2 705.187 1773.77 701.88C1773.34 698.573 1773.13 695.053 1773.13 691.32C1773.24 687.48 1773.56 683.8 1774.09 680.28C1774.62 676.653 1775.42 673.56 1776.49 671C1780.86 671.427 1786.25 671.853 1792.65 672.28C1799.05 672.6 1807.58 672.76 1818.25 672.76C1825.5 672.76 1833.34 672.493 1841.77 671.96C1850.3 671.32 1859.05 670.733 1868.01 670.2C1876.97 669.667 1885.72 669.4 1894.25 669.4C1901.5 669.4 1907.21 670.947 1911.37 674.04C1915.64 677.027 1918.84 680.973 1920.97 685.88C1923.1 690.787 1924.49 696.067 1925.13 701.72C1925.77 707.373 1926.04 712.92 1925.93 718.36C1925.93 723.693 1925.93 728.333 1925.93 732.28C1925.93 738.573 1926.52 743.587 1927.69 747.32C1928.86 750.947 1930.41 753.667 1932.33 755.48C1934.36 757.293 1936.49 758.627 1938.73 759.48C1939.48 761.72 1939.96 764.547 1940.17 767.96C1940.49 771.373 1940.6 774.947 1940.49 778.68C1940.49 782.307 1940.22 785.827 1939.69 789.24C1939.16 792.653 1938.46 795.48 1937.61 797.72C1933.24 797.293 1927.96 796.76 1921.77 796.12C1915.69 795.48 1908.33 795.16 1899.69 795.16C1890.84 795.16 1882.46 795.48 1874.57 796.12C1866.78 796.76 1860.7 797.293 1856.33 797.72C1855.9 795.48 1855.53 792.653 1855.21 789.24C1854.89 785.827 1854.68 782.307 1854.57 778.68C1854.46 774.947 1854.46 771.373 1854.57 767.96C1854.68 764.547 1854.89 761.72 1855.21 759.48H1859.69V751.48H1845.77V759.48H1850.25C1850.68 761.72 1850.94 764.547 1851.05 767.96C1851.26 771.373 1851.32 774.947 1851.21 778.68C1851.1 782.307 1850.89 785.827 1850.57 789.24C1850.25 792.653 1849.77 795.48 1849.13 797.72C1846.25 797.4 1843.16 797.027 1839.85 796.6C1836.65 796.28 1832.86 795.96 1828.49 795.64C1824.22 795.32 1818.94 795.16 1812.65 795.16C1802.73 795.16 1794.2 795.427 1787.05 795.96C1779.9 796.6 1773.98 797.187 1769.29 797.72ZM1846.89 727.96H1858.41V720.44H1846.89V727.96Z" fill="white" fill-opacity="0.03"/>
<path d="M1709.76 937.12C1694.61 937.12 1683.31 935.307 1675.84 931.68C1668.48 927.947 1664.69 921.387 1664.48 912C1663.09 915.947 1662.61 919.627 1663.04 923.04C1663.57 926.453 1664.43 929.813 1665.6 933.12C1654.19 933.44 1644.69 933.76 1637.12 934.08C1629.55 934.507 1622.67 934.667 1616.48 934.56C1614.88 926.027 1613.97 917.6 1613.76 909.28C1613.65 900.853 1614.29 891.947 1615.68 882.56C1621.55 882.56 1627.41 883.147 1633.28 884.32C1639.15 885.493 1644.69 887.147 1649.92 889.28C1655.15 891.307 1659.63 893.813 1663.36 896.8L1666.56 893.44C1662.93 890.56 1658.99 888.16 1654.72 886.24C1650.56 884.213 1646.35 882.507 1642.08 881.12C1636.64 879.2 1631.68 876.747 1627.2 873.76C1622.83 870.773 1619.36 867.04 1616.8 862.56C1614.24 858.08 1612.96 852.747 1612.96 846.56C1612.96 838.88 1614.72 831.947 1618.24 825.76C1621.76 819.467 1627.52 814.507 1635.52 810.88C1643.63 807.147 1654.51 805.28 1668.16 805.28C1681.71 805.28 1692.05 807.2 1699.2 811.04C1706.35 814.773 1710.03 821.707 1710.24 831.84C1711.73 827.787 1712.21 824 1711.68 820.48C1711.15 816.96 1710.29 813.227 1709.12 809.28C1716.8 809.173 1723.2 809.067 1728.32 808.96C1733.44 808.747 1737.97 808.533 1741.92 808.32C1745.87 808.107 1749.87 808 1753.92 808C1755.52 815.68 1756.37 824 1756.48 832.96C1756.69 841.813 1756.11 850.88 1754.72 860.16C1748.64 860.053 1743.2 859.52 1738.4 858.56C1733.71 857.493 1729.33 855.947 1725.28 853.92C1721.23 851.893 1717.07 849.387 1712.8 846.4L1709.92 850.08C1713.97 853.067 1718.13 855.627 1722.4 857.76C1726.67 859.787 1730.67 861.653 1734.4 863.36C1739.95 865.813 1744.64 868.533 1748.48 871.52C1752.32 874.507 1755.25 878.133 1757.28 882.4C1759.41 886.667 1760.48 892 1760.48 898.4C1760.48 907.253 1758.93 914.293 1755.84 919.52C1752.85 924.747 1748.85 928.64 1743.84 931.2C1738.83 933.653 1733.33 935.253 1727.36 936C1721.49 936.747 1715.63 937.12 1709.76 937.12ZM1766.82 934.72C1765.86 932.48 1765.11 929.653 1764.58 926.24C1764.04 922.827 1763.72 919.307 1763.62 915.68C1763.51 911.947 1763.62 908.373 1763.94 904.96C1764.36 901.547 1764.95 898.72 1765.7 896.48C1767.3 895.84 1768.84 894.773 1770.34 893.28C1771.94 891.68 1773.27 889.173 1774.34 885.76C1775.4 882.24 1775.94 877.333 1775.94 871.04C1775.94 864.213 1775.3 859.093 1774.02 855.68C1772.84 852.16 1771.4 849.813 1769.7 848.64C1768.1 847.36 1766.66 846.72 1765.38 846.72C1764.42 844.8 1763.72 842.187 1763.3 838.88C1762.87 835.573 1762.66 832.053 1762.66 828.32C1762.76 824.48 1763.08 820.8 1763.62 817.28C1764.15 813.653 1764.95 810.56 1766.02 808C1773.91 808.32 1781 808.373 1787.3 808.16C1793.7 807.947 1800.04 807.627 1806.34 807.2C1812.74 806.773 1819.67 806.4 1827.14 806.08C1834.71 805.653 1843.62 805.44 1853.86 805.44C1868.9 805.44 1881.59 806.773 1891.94 809.44C1902.28 812 1910.12 816.747 1915.46 823.68C1920.9 830.507 1923.62 840.267 1923.62 852.96C1923.62 863.947 1921.54 872.747 1917.38 879.36C1913.32 885.973 1907.46 890.773 1899.78 893.76C1892.1 896.64 1882.87 898.08 1872.1 898.08C1865.27 898.08 1859.83 897.547 1855.78 896.48C1851.72 895.307 1847.99 892.747 1844.58 888.8L1841.22 891.84C1843.99 895.147 1847.35 897.707 1851.3 899.52C1855.24 901.227 1860.15 902.187 1866.02 902.4C1866.98 905.387 1867.56 908.8 1867.78 912.64C1868.1 916.48 1867.99 920.32 1867.46 924.16C1867.03 928 1866.23 931.467 1865.06 934.56C1859.83 934.133 1852.58 933.6 1843.3 932.96C1834.12 932.32 1823.62 932.053 1811.78 932.16C1805.8 932.16 1799.94 932.32 1794.18 932.64C1788.42 932.96 1783.14 933.28 1778.34 933.6C1773.64 934.027 1769.8 934.4 1766.82 934.72ZM1841.22 864.16H1850.98V853.44H1841.22V864.16ZM1649.92 1070.72C1649.07 1068.48 1648.37 1065.65 1647.84 1062.24C1647.31 1058.83 1646.99 1055.31 1646.88 1051.68C1646.88 1047.95 1646.99 1044.37 1647.2 1040.96C1647.52 1037.55 1648.05 1034.72 1648.8 1032.48C1652.21 1031.63 1654.83 1029.28 1656.64 1025.44C1658.45 1021.49 1659.36 1014.83 1659.36 1005.44V993.92H1654.24C1655.2 1002.03 1655.04 1010.03 1653.76 1017.92C1649.6 1018.77 1645.65 1019.36 1641.92 1019.68C1638.19 1019.89 1634.24 1019.89 1630.08 1019.68C1625.92 1019.36 1621.07 1018.77 1615.52 1017.92C1614.88 1014.19 1614.4 1009.6 1614.08 1004.16C1613.76 998.613 1613.6 992.8 1613.6 986.72C1613.6 980.533 1613.71 974.56 1613.92 968.8C1614.13 963.04 1614.45 957.973 1614.88 953.6C1615.31 949.12 1615.79 945.867 1616.32 943.84C1622.61 943.84 1632.11 944.267 1644.8 945.12C1657.49 945.867 1673.65 946.24 1693.28 946.24C1706.61 946.24 1718.03 946.027 1727.52 945.6C1737.01 945.173 1745.01 944.8 1751.52 944.48C1758.13 944.053 1763.57 943.84 1767.84 943.84C1768.37 946.187 1768.85 949.707 1769.28 954.4C1769.71 958.987 1770.03 964.213 1770.24 970.08C1770.45 975.84 1770.56 981.76 1770.56 987.84C1770.56 993.813 1770.4 999.467 1770.08 1004.8C1769.76 1010.03 1769.28 1014.4 1768.64 1017.92C1763.09 1018.77 1758.29 1019.36 1754.24 1019.68C1750.19 1019.89 1746.24 1019.89 1742.4 1019.68C1738.67 1019.36 1734.4 1018.77 1729.6 1017.92C1728.32 1010.13 1728.16 1002.19 1729.12 994.08H1724V1005.44C1724 1011.73 1724.53 1016.75 1725.6 1020.48C1726.77 1024.21 1728.27 1026.99 1730.08 1028.8C1731.89 1030.61 1733.92 1031.84 1736.16 1032.48C1736.91 1034.72 1737.39 1037.55 1737.6 1040.96C1737.92 1044.37 1738.03 1047.95 1737.92 1051.68C1737.92 1055.31 1737.65 1058.83 1737.12 1062.24C1736.59 1065.65 1735.89 1068.48 1735.04 1070.72C1730.35 1070.19 1724.43 1069.6 1717.28 1068.96C1710.24 1068.43 1701.97 1068.16 1692.48 1068.16C1682.56 1068.16 1674.13 1068.43 1667.2 1068.96C1660.37 1069.6 1654.61 1070.19 1649.92 1070.72ZM1769.29 1070.72C1768.44 1068.48 1767.74 1065.65 1767.21 1062.24C1766.68 1058.83 1766.36 1055.31 1766.25 1051.68C1766.25 1047.95 1766.36 1044.37 1766.57 1040.96C1766.89 1037.55 1767.42 1034.72 1768.17 1032.48C1771.58 1031.73 1774.2 1030.19 1776.01 1027.84C1777.93 1025.39 1779.32 1022.45 1780.17 1019.04C1781.02 1015.52 1781.72 1011.89 1782.25 1008.16C1782.89 1004.21 1783.32 1000.43 1783.53 996.8C1783.74 993.067 1783.32 989.92 1782.25 987.36C1781.29 984.8 1779.16 983.253 1775.85 982.72C1774.89 980.8 1774.2 978.187 1773.77 974.88C1773.34 971.573 1773.13 968.053 1773.13 964.32C1773.24 960.48 1773.56 956.8 1774.09 953.28C1774.62 949.653 1775.42 946.56 1776.49 944C1780.86 944.427 1786.25 944.853 1792.65 945.28C1799.05 945.6 1807.58 945.76 1818.25 945.76C1825.5 945.76 1833.34 945.493 1841.77 944.96C1850.3 944.32 1859.05 943.733 1868.01 943.2C1876.97 942.667 1885.72 942.4 1894.25 942.4C1901.5 942.4 1907.21 943.947 1911.37 947.04C1915.64 950.027 1918.84 953.973 1920.97 958.88C1923.1 963.787 1924.49 969.067 1925.13 974.72C1925.77 980.373 1926.04 985.92 1925.93 991.36C1925.93 996.693 1925.93 1001.33 1925.93 1005.28C1925.93 1011.57 1926.52 1016.59 1927.69 1020.32C1928.86 1023.95 1930.41 1026.67 1932.33 1028.48C1934.36 1030.29 1936.49 1031.63 1938.73 1032.48C1939.48 1034.72 1939.96 1037.55 1940.17 1040.96C1940.49 1044.37 1940.6 1047.95 1940.49 1051.68C1940.49 1055.31 1940.22 1058.83 1939.69 1062.24C1939.16 1065.65 1938.46 1068.48 1937.61 1070.72C1933.24 1070.29 1927.96 1069.76 1921.77 1069.12C1915.69 1068.48 1908.33 1068.16 1899.69 1068.16C1890.84 1068.16 1882.46 1068.48 1874.57 1069.12C1866.78 1069.76 1860.7 1070.29 1856.33 1070.72C1855.9 1068.48 1855.53 1065.65 1855.21 1062.24C1854.89 1058.83 1854.68 1055.31 1854.57 1051.68C1854.46 1047.95 1854.46 1044.37 1854.57 1040.96C1854.68 1037.55 1854.89 1034.72 1855.21 1032.48H1859.69V1024.48H1845.77V1032.48H1850.25C1850.68 1034.72 1850.94 1037.55 1851.05 1040.96C1851.26 1044.37 1851.32 1047.95 1851.21 1051.68C1851.1 1055.31 1850.89 1058.83 1850.57 1062.24C1850.25 1065.65 1849.77 1068.48 1849.13 1070.72C1846.25 1070.4 1843.16 1070.03 1839.85 1069.6C1836.65 1069.28 1832.86 1068.96 1828.49 1068.64C1824.22 1068.32 1818.94 1068.16 1812.65 1068.16C1802.73 1068.16 1794.2 1068.43 1787.05 1068.96C1779.9 1069.6 1773.98 1070.19 1769.29 1070.72ZM1846.89 1000.96H1858.41V993.44H1846.89V1000.96Z" fill="white" fill-opacity="0.03"/>
<path d="M1709.76 1210.12C1694.61 1210.12 1683.31 1208.31 1675.84 1204.68C1668.48 1200.95 1664.69 1194.39 1664.48 1185C1663.09 1188.95 1662.61 1192.63 1663.04 1196.04C1663.57 1199.45 1664.43 1202.81 1665.6 1206.12C1654.19 1206.44 1644.69 1206.76 1637.12 1207.08C1629.55 1207.51 1622.67 1207.67 1616.48 1207.56C1614.88 1199.03 1613.97 1190.6 1613.76 1182.28C1613.65 1173.85 1614.29 1164.95 1615.68 1155.56C1621.55 1155.56 1627.41 1156.15 1633.28 1157.32C1639.15 1158.49 1644.69 1160.15 1649.92 1162.28C1655.15 1164.31 1659.63 1166.81 1663.36 1169.8L1666.56 1166.44C1662.93 1163.56 1658.99 1161.16 1654.72 1159.24C1650.56 1157.21 1646.35 1155.51 1642.08 1154.12C1636.64 1152.2 1631.68 1149.75 1627.2 1146.76C1622.83 1143.77 1619.36 1140.04 1616.8 1135.56C1614.24 1131.08 1612.96 1125.75 1612.96 1119.56C1612.96 1111.88 1614.72 1104.95 1618.24 1098.76C1621.76 1092.47 1627.52 1087.51 1635.52 1083.88C1643.63 1080.15 1654.51 1078.28 1668.16 1078.28C1681.71 1078.28 1692.05 1080.2 1699.2 1084.04C1706.35 1087.77 1710.03 1094.71 1710.24 1104.84C1711.73 1100.79 1712.21 1097 1711.68 1093.48C1711.15 1089.96 1710.29 1086.23 1709.12 1082.28C1716.8 1082.17 1723.2 1082.07 1728.32 1081.96C1733.44 1081.75 1737.97 1081.53 1741.92 1081.32C1745.87 1081.11 1749.87 1081 1753.92 1081C1755.52 1088.68 1756.37 1097 1756.48 1105.96C1756.69 1114.81 1756.11 1123.88 1754.72 1133.16C1748.64 1133.05 1743.2 1132.52 1738.4 1131.56C1733.71 1130.49 1729.33 1128.95 1725.28 1126.92C1721.23 1124.89 1717.07 1122.39 1712.8 1119.4L1709.92 1123.08C1713.97 1126.07 1718.13 1128.63 1722.4 1130.76C1726.67 1132.79 1730.67 1134.65 1734.4 1136.36C1739.95 1138.81 1744.64 1141.53 1748.48 1144.52C1752.32 1147.51 1755.25 1151.13 1757.28 1155.4C1759.41 1159.67 1760.48 1165 1760.48 1171.4C1760.48 1180.25 1758.93 1187.29 1755.84 1192.52C1752.85 1197.75 1748.85 1201.64 1743.84 1204.2C1738.83 1206.65 1733.33 1208.25 1727.36 1209C1721.49 1209.75 1715.63 1210.12 1709.76 1210.12ZM1766.82 1207.72C1765.86 1205.48 1765.11 1202.65 1764.58 1199.24C1764.04 1195.83 1763.72 1192.31 1763.62 1188.68C1763.51 1184.95 1763.62 1181.37 1763.94 1177.96C1764.36 1174.55 1764.95 1171.72 1765.7 1169.48C1767.3 1168.84 1768.84 1167.77 1770.34 1166.28C1771.94 1164.68 1773.27 1162.17 1774.34 1158.76C1775.4 1155.24 1775.94 1150.33 1775.94 1144.04C1775.94 1137.21 1775.3 1132.09 1774.02 1128.68C1772.84 1125.16 1771.4 1122.81 1769.7 1121.64C1768.1 1120.36 1766.66 1119.72 1765.38 1119.72C1764.42 1117.8 1763.72 1115.19 1763.3 1111.88C1762.87 1108.57 1762.66 1105.05 1762.66 1101.32C1762.76 1097.48 1763.08 1093.8 1763.62 1090.28C1764.15 1086.65 1764.95 1083.56 1766.02 1081C1773.91 1081.32 1781 1081.37 1787.3 1081.16C1793.7 1080.95 1800.04 1080.63 1806.34 1080.2C1812.74 1079.77 1819.67 1079.4 1827.14 1079.08C1834.71 1078.65 1843.62 1078.44 1853.86 1078.44C1868.9 1078.44 1881.59 1079.77 1891.94 1082.44C1902.28 1085 1910.12 1089.75 1915.46 1096.68C1920.9 1103.51 1923.62 1113.27 1923.62 1125.96C1923.62 1136.95 1921.54 1145.75 1917.38 1152.36C1913.32 1158.97 1907.46 1163.77 1899.78 1166.76C1892.1 1169.64 1882.87 1171.08 1872.1 1171.08C1865.27 1171.08 1859.83 1170.55 1855.78 1169.48C1851.72 1168.31 1847.99 1165.75 1844.58 1161.8L1841.22 1164.84C1843.99 1168.15 1847.35 1170.71 1851.3 1172.52C1855.24 1174.23 1860.15 1175.19 1866.02 1175.4C1866.98 1178.39 1867.56 1181.8 1867.78 1185.64C1868.1 1189.48 1867.99 1193.32 1867.46 1197.16C1867.03 1201 1866.23 1204.47 1865.06 1207.56C1859.83 1207.13 1852.58 1206.6 1843.3 1205.96C1834.12 1205.32 1823.62 1205.05 1811.78 1205.16C1805.8 1205.16 1799.94 1205.32 1794.18 1205.64C1788.42 1205.96 1783.14 1206.28 1778.34 1206.6C1773.64 1207.03 1769.8 1207.4 1766.82 1207.72ZM1841.22 1137.16H1850.98V1126.44H1841.22V1137.16ZM1649.92 1343.72C1649.07 1341.48 1648.37 1338.65 1647.84 1335.24C1647.31 1331.83 1646.99 1328.31 1646.88 1324.68C1646.88 1320.95 1646.99 1317.37 1647.2 1313.96C1647.52 1310.55 1648.05 1307.72 1648.8 1305.48C1652.21 1304.63 1654.83 1302.28 1656.64 1298.44C1658.45 1294.49 1659.36 1287.83 1659.36 1278.44V1266.92H1654.24C1655.2 1275.03 1655.04 1283.03 1653.76 1290.92C1649.6 1291.77 1645.65 1292.36 1641.92 1292.68C1638.19 1292.89 1634.24 1292.89 1630.08 1292.68C1625.92 1292.36 1621.07 1291.77 1615.52 1290.92C1614.88 1287.19 1614.4 1282.6 1614.08 1277.16C1613.76 1271.61 1613.6 1265.8 1613.6 1259.72C1613.6 1253.53 1613.71 1247.56 1613.92 1241.8C1614.13 1236.04 1614.45 1230.97 1614.88 1226.6C1615.31 1222.12 1615.79 1218.87 1616.32 1216.84C1622.61 1216.84 1632.11 1217.27 1644.8 1218.12C1657.49 1218.87 1673.65 1219.24 1693.28 1219.24C1706.61 1219.24 1718.03 1219.03 1727.52 1218.6C1737.01 1218.17 1745.01 1217.8 1751.52 1217.48C1758.13 1217.05 1763.57 1216.84 1767.84 1216.84C1768.37 1219.19 1768.85 1222.71 1769.28 1227.4C1769.71 1231.99 1770.03 1237.21 1770.24 1243.08C1770.45 1248.84 1770.56 1254.76 1770.56 1260.84C1770.56 1266.81 1770.4 1272.47 1770.08 1277.8C1769.76 1283.03 1769.28 1287.4 1768.64 1290.92C1763.09 1291.77 1758.29 1292.36 1754.24 1292.68C1750.19 1292.89 1746.24 1292.89 1742.4 1292.68C1738.67 1292.36 1734.4 1291.77 1729.6 1290.92C1728.32 1283.13 1728.16 1275.19 1729.12 1267.08H1724V1278.44C1724 1284.73 1724.53 1289.75 1725.6 1293.48C1726.77 1297.21 1728.27 1299.99 1730.08 1301.8C1731.89 1303.61 1733.92 1304.84 1736.16 1305.48C1736.91 1307.72 1737.39 1310.55 1737.6 1313.96C1737.92 1317.37 1738.03 1320.95 1737.92 1324.68C1737.92 1328.31 1737.65 1331.83 1737.12 1335.24C1736.59 1338.65 1735.89 1341.48 1735.04 1343.72C1730.35 1343.19 1724.43 1342.6 1717.28 1341.96C1710.24 1341.43 1701.97 1341.16 1692.48 1341.16C1682.56 1341.16 1674.13 1341.43 1667.2 1341.96C1660.37 1342.6 1654.61 1343.19 1649.92 1343.72ZM1769.29 1343.72C1768.44 1341.48 1767.74 1338.65 1767.21 1335.24C1766.68 1331.83 1766.36 1328.31 1766.25 1324.68C1766.25 1320.95 1766.36 1317.37 1766.57 1313.96C1766.89 1310.55 1767.42 1307.72 1768.17 1305.48C1771.58 1304.73 1774.2 1303.19 1776.01 1300.84C1777.93 1298.39 1779.32 1295.45 1780.17 1292.04C1781.02 1288.52 1781.72 1284.89 1782.25 1281.16C1782.89 1277.21 1783.32 1273.43 1783.53 1269.8C1783.74 1266.07 1783.32 1262.92 1782.25 1260.36C1781.29 1257.8 1779.16 1256.25 1775.85 1255.72C1774.89 1253.8 1774.2 1251.19 1773.77 1247.88C1773.34 1244.57 1773.13 1241.05 1773.13 1237.32C1773.24 1233.48 1773.56 1229.8 1774.09 1226.28C1774.62 1222.65 1775.42 1219.56 1776.49 1217C1780.86 1217.43 1786.25 1217.85 1792.65 1218.28C1799.05 1218.6 1807.58 1218.76 1818.25 1218.76C1825.5 1218.76 1833.34 1218.49 1841.77 1217.96C1850.3 1217.32 1859.05 1216.73 1868.01 1216.2C1876.97 1215.67 1885.72 1215.4 1894.25 1215.4C1901.5 1215.4 1907.21 1216.95 1911.37 1220.04C1915.64 1223.03 1918.84 1226.97 1920.97 1231.88C1923.1 1236.79 1924.49 1242.07 1925.13 1247.72C1925.77 1253.37 1926.04 1258.92 1925.93 1264.36C1925.93 1269.69 1925.93 1274.33 1925.93 1278.28C1925.93 1284.57 1926.52 1289.59 1927.69 1293.32C1928.86 1296.95 1930.41 1299.67 1932.33 1301.48C1934.36 1303.29 1936.49 1304.63 1938.73 1305.48C1939.48 1307.72 1939.96 1310.55 1940.17 1313.96C1940.49 1317.37 1940.6 1320.95 1940.49 1324.68C1940.49 1328.31 1940.22 1331.83 1939.69 1335.24C1939.16 1338.65 1938.46 1341.48 1937.61 1343.72C1933.24 1343.29 1927.96 1342.76 1921.77 1342.12C1915.69 1341.48 1908.33 1341.16 1899.69 1341.16C1890.84 1341.16 1882.46 1341.48 1874.57 1342.12C1866.78 1342.76 1860.7 1343.29 1856.33 1343.72C1855.9 1341.48 1855.53 1338.65 1855.21 1335.24C1854.89 1331.83 1854.68 1328.31 1854.57 1324.68C1854.46 1320.95 1854.46 1317.37 1854.57 1313.96C1854.68 1310.55 1854.89 1307.72 1855.21 1305.48H1859.69V1297.48H1845.77V1305.48H1850.25C1850.68 1307.72 1850.94 1310.55 1851.05 1313.96C1851.26 1317.37 1851.32 1320.95 1851.21 1324.68C1851.1 1328.31 1850.89 1331.83 1850.57 1335.24C1850.25 1338.65 1849.77 1341.48 1849.13 1343.72C1846.25 1343.4 1843.16 1343.03 1839.85 1342.6C1836.65 1342.28 1832.86 1341.96 1828.49 1341.64C1824.22 1341.32 1818.94 1341.16 1812.65 1341.16C1802.73 1341.16 1794.2 1341.43 1787.05 1341.96C1779.9 1342.6 1773.98 1343.19 1769.29 1343.72ZM1846.89 1273.96H1858.41V1266.44H1846.89V1273.96Z" fill="white" fill-opacity="0.03"/>
</g>
</g>
<defs>
<clipPath id="clip0_327_20">
<rect width="1922" height="1207" fill="white"/>
</clipPath>
<clipPath id="clip1_327_20">
<rect width="350.141" height="1400" fill="white" transform="translate(-40)"/>
</clipPath>
<clipPath id="clip2_327_20">
<rect width="350.141" height="1364" fill="white" transform="translate(1612)"/>
</clipPath>
</defs>
</svg>
