<svg width="28" height="28" viewBox="0 0 28 28" fill="none" xmlns="http://www.w3.org/2000/svg">
<g id="home_black_24dp (1) 2" clip-path="url(#clip0_230_126)">
<path id="Vector" d="M11.6631 22.1665V16.3332H16.3298V22.1665C16.3298 22.8082 16.8548 23.3332 17.4965 23.3332H20.9965C21.6381 23.3332 22.1631 22.8082 22.1631 22.1665V13.9998H24.1465C24.6831 13.9998 24.9398 13.3348 24.5315 12.9848L14.7781 4.19984C14.3348 3.80318 13.6581 3.80318 13.2148 4.19984L3.46145 12.9848C3.06479 13.3348 3.30979 13.9998 3.84645 13.9998H5.82979V22.1665C5.82979 22.8082 6.35479 23.3332 6.99645 23.3332H10.4965C11.1381 23.3332 11.6631 22.8082 11.6631 22.1665Z" fill="white"/>
</g>
<defs>
<clipPath id="clip0_230_126">
<rect width="28" height="28" fill="white"/>
</clipPath>
</defs>
</svg>
