<svg width="15" height="15" viewBox="0 0 15 15" fill="none" xmlns="http://www.w3.org/2000/svg">
<path d="M10.9531 1H4.04688C2.36413 1 1 2.36413 1 4.04688V10.9531C1 12.6359 2.36413 14 4.04688 14H10.9531C12.6359 14 14 12.6359 14 10.9531V4.04688C14 2.36413 12.6359 1 10.9531 1Z" fill="url(#paint0_radial_3_3127)"/>
<path d="M10.9531 1H4.04688C2.36413 1 1 2.36413 1 4.04688V10.9531C1 12.6359 2.36413 14 4.04688 14H10.9531C12.6359 14 14 12.6359 14 10.9531V4.04688C14 2.36413 12.6359 1 10.9531 1Z" fill="url(#paint1_radial_3_3127)"/>
<path d="M7.50046 2.42188C6.12134 2.42188 5.94823 2.42792 5.40659 2.45255C4.86598 2.47733 4.49695 2.56289 4.17408 2.68848C3.84004 2.81817 3.55673 2.99169 3.27449 3.27404C2.992 3.55633 2.81848 3.83964 2.68838 4.17352C2.56244 4.49649 2.47677 4.86567 2.45245 5.40604C2.42822 5.94772 2.42188 6.12088 2.42188 7.50005C2.42188 8.87922 2.42797 9.05177 2.45255 9.59341C2.47743 10.134 2.563 10.5031 2.68848 10.8259C2.81827 11.16 2.99179 11.4433 3.27414 11.7255C3.55633 12.008 3.83964 12.1819 4.17342 12.3116C4.49654 12.4372 4.86562 12.5228 5.40614 12.5476C5.94782 12.5722 6.12078 12.5782 7.49985 12.5782C8.87912 12.5782 9.05167 12.5722 9.5933 12.5476C10.1339 12.5228 10.5034 12.4372 10.8265 12.3116C11.1604 12.1819 11.4433 12.008 11.7254 11.7255C12.0079 11.4433 12.1814 11.16 12.3115 10.8261C12.4363 10.5031 12.5221 10.1339 12.5475 9.59351C12.5718 9.05188 12.5781 8.87922 12.5781 7.50005C12.5781 6.12088 12.5718 5.94782 12.5475 5.40614C12.5221 4.86552 12.4363 4.49654 12.3115 4.17368C12.1814 3.83964 12.0079 3.55633 11.7254 3.27404C11.443 2.99159 11.1605 2.81807 10.8262 2.68853C10.5024 2.56289 10.1332 2.47728 9.59259 2.45255C9.05091 2.42792 8.87846 2.42188 7.49888 2.42188H7.50046ZM7.0449 3.337C7.18013 3.3368 7.331 3.337 7.50046 3.337C8.85637 3.337 9.01704 3.34188 9.55248 3.3662C10.0476 3.38885 10.3163 3.47157 10.4953 3.54109C10.7323 3.63311 10.9013 3.74315 11.0789 3.92094C11.2566 4.09867 11.3666 4.26793 11.4589 4.50492C11.5284 4.68367 11.6112 4.95241 11.6338 5.44752C11.6581 5.98286 11.6634 6.14363 11.6634 7.49888C11.6634 8.85413 11.6581 9.01496 11.6338 9.55024C11.6111 10.0454 11.5284 10.3141 11.4589 10.4929C11.3669 10.7299 11.2566 10.8986 11.0789 11.0763C10.9012 11.254 10.7324 11.364 10.4953 11.4561C10.3165 11.5259 10.0476 11.6084 9.55248 11.6311C9.01714 11.6554 8.85637 11.6607 7.50046 11.6607C6.1445 11.6607 5.98377 11.6554 5.44849 11.6311C4.95337 11.6082 4.68464 11.5255 4.50548 11.456C4.26854 11.3639 4.09923 11.2539 3.9215 11.0762C3.74376 10.8984 3.63377 10.7296 3.5415 10.4925C3.47198 10.3137 3.38916 10.045 3.36661 9.54984C3.34229 9.0145 3.33741 8.85373 3.33741 7.49761C3.33741 6.14155 3.34229 5.98159 3.36661 5.44625C3.38926 4.95114 3.47198 4.6824 3.5415 4.5034C3.63357 4.2664 3.74376 4.09715 3.92155 3.91941C4.09928 3.74168 4.26854 3.63164 4.50553 3.53942C4.68454 3.46959 4.95337 3.38707 5.44849 3.36432C5.91695 3.34315 6.09849 3.3368 7.0449 3.33573V3.337ZM10.2112 4.18018C9.87473 4.18018 9.60179 4.45287 9.60179 4.78935C9.60179 5.12577 9.87473 5.39872 10.2112 5.39872C10.5476 5.39872 10.8205 5.12577 10.8205 4.78935C10.8205 4.45292 10.5476 4.17997 10.2112 4.17997V4.18018ZM7.50046 4.89218C6.0603 4.89218 4.89264 6.05984 4.89264 7.50005C4.89264 8.94026 6.0603 10.1074 7.50046 10.1074C8.94066 10.1074 10.1079 8.94026 10.1079 7.50005C10.1079 6.0599 8.94056 4.89218 7.50036 4.89218H7.50046ZM7.50046 5.80731C8.43529 5.80731 9.1932 6.56512 9.1932 7.50005C9.1932 8.43488 8.43529 9.19279 7.50046 9.19279C6.56557 9.19279 5.80777 8.43488 5.80777 7.50005C5.80777 6.56512 6.56557 5.80731 7.50046 5.80731Z" fill="white"/>
<defs>
<radialGradient id="paint0_radial_3_3127" cx="0" cy="0" r="1" gradientUnits="userSpaceOnUse" gradientTransform="translate(4.45312 15.0013) rotate(-90) scale(12.884 11.9831)">
<stop stop-color="#FFDD55"/>
<stop offset="0.1" stop-color="#FFDD55"/>
<stop offset="0.5" stop-color="#FF543E"/>
<stop offset="1" stop-color="#C837AB"/>
</radialGradient>
<radialGradient id="paint1_radial_3_3127" cx="0" cy="0" r="1" gradientUnits="userSpaceOnUse" gradientTransform="translate(-1.17755 1.93646) rotate(78.681) scale(5.7592 23.7396)">
<stop stop-color="#3771C8"/>
<stop offset="0.128" stop-color="#3771C8"/>
<stop offset="1" stop-color="#6600FF" stop-opacity="0"/>
</radialGradient>
</defs>
</svg>
