<svg width="456" height="445" viewBox="0 0 456 445" fill="none" xmlns="http://www.w3.org/2000/svg">
<circle cx="222.5" cy="222.5" r="222.5" fill="#FE4185"/>
<path d="M93.92 334.72C93.0667 332.48 92.3733 329.653 91.84 326.24C91.3067 322.827 90.9867 319.307 90.88 315.68C90.88 311.947 90.9867 308.373 91.2 304.96C91.52 301.547 92.0533 298.72 92.8 296.48C96.2133 295.627 98.8267 293.28 100.64 289.44C102.453 285.493 103.36 278.827 103.36 269.44V257.92H98.24C99.2 266.027 99.04 274.027 97.76 281.92C93.6 282.773 89.6533 283.36 85.92 283.68C82.1867 283.893 78.24 283.893 74.08 283.68C69.92 283.36 65.0667 282.773 59.52 281.92C58.88 278.187 58.4 273.6 58.08 268.16C57.76 262.613 57.6 256.8 57.6 250.72C57.6 244.533 57.7067 238.56 57.92 232.8C58.1333 227.04 58.4533 221.973 58.88 217.6C59.3067 213.12 59.7867 209.867 60.32 207.84C66.6133 207.84 76.1067 208.267 88.8 209.12C101.493 209.867 117.653 210.24 137.28 210.24C150.613 210.24 162.027 210.027 171.52 209.6C181.013 209.173 189.013 208.8 195.52 208.48C202.133 208.053 207.573 207.84 211.84 207.84C212.373 210.187 212.853 213.707 213.28 218.4C213.707 222.987 214.027 228.213 214.24 234.08C214.453 239.84 214.56 245.76 214.56 251.84C214.56 257.813 214.4 263.467 214.08 268.8C213.76 274.027 213.28 278.4 212.64 281.92C207.093 282.773 202.293 283.36 198.24 283.68C194.187 283.893 190.24 283.893 186.4 283.68C182.667 283.36 178.4 282.773 173.6 281.92C172.32 274.133 172.16 266.187 173.12 258.08H168V269.44C168 275.733 168.533 280.747 169.6 284.48C170.773 288.213 172.267 290.987 174.08 292.8C175.893 294.613 177.92 295.84 180.16 296.48C180.907 298.72 181.387 301.547 181.6 304.96C181.92 308.373 182.027 311.947 181.92 315.68C181.92 319.307 181.653 322.827 181.12 326.24C180.587 329.653 179.893 332.48 179.04 334.72C174.347 334.187 168.427 333.6 161.28 332.96C154.24 332.427 145.973 332.16 136.48 332.16C126.56 332.16 118.133 332.427 111.2 332.96C104.373 333.6 98.6133 334.187 93.92 334.72ZM213.289 334.72C212.435 332.48 211.742 329.653 211.209 326.24C210.675 322.827 210.355 319.307 210.249 315.68C210.249 311.947 210.355 308.373 210.569 304.96C210.889 301.547 211.422 298.72 212.169 296.48C215.582 295.733 218.195 294.187 220.009 291.84C221.929 289.387 223.315 286.453 224.169 283.04C225.022 279.52 225.715 275.893 226.249 272.16C226.889 268.213 227.315 264.427 227.529 260.8C227.742 257.067 227.315 253.92 226.249 251.36C225.289 248.8 223.155 247.253 219.849 246.72C218.889 244.8 218.195 242.187 217.769 238.88C217.342 235.573 217.129 232.053 217.129 228.32C217.235 224.48 217.555 220.8 218.089 217.28C218.622 213.653 219.422 210.56 220.489 208C224.862 208.427 230.249 208.853 236.649 209.28C243.049 209.6 251.582 209.76 262.249 209.76C269.502 209.76 277.342 209.493 285.769 208.96C294.302 208.32 303.049 207.733 312.009 207.2C320.969 206.667 329.715 206.4 338.249 206.4C345.502 206.4 351.209 207.947 355.369 211.04C359.635 214.027 362.835 217.973 364.969 222.88C367.102 227.787 368.489 233.067 369.129 238.72C369.769 244.373 370.035 249.92 369.929 255.36C369.929 260.693 369.929 265.333 369.929 269.28C369.929 275.573 370.515 280.587 371.689 284.32C372.862 287.947 374.409 290.667 376.329 292.48C378.355 294.293 380.489 295.627 382.729 296.48C383.475 298.72 383.955 301.547 384.169 304.96C384.489 308.373 384.595 311.947 384.489 315.68C384.489 319.307 384.222 322.827 383.689 326.24C383.155 329.653 382.462 332.48 381.609 334.72C377.235 334.293 371.955 333.76 365.769 333.12C359.689 332.48 352.329 332.16 343.689 332.16C334.835 332.16 326.462 332.48 318.569 333.12C310.782 333.76 304.702 334.293 300.329 334.72C299.902 332.48 299.529 329.653 299.209 326.24C298.889 322.827 298.675 319.307 298.569 315.68C298.462 311.947 298.462 308.373 298.569 304.96C298.675 301.547 298.889 298.72 299.209 296.48H303.689V288.48H289.769V296.48H294.249C294.675 298.72 294.942 301.547 295.049 304.96C295.262 308.373 295.315 311.947 295.209 315.68C295.102 319.307 294.889 322.827 294.569 326.24C294.249 329.653 293.769 332.48 293.129 334.72C290.249 334.4 287.155 334.027 283.849 333.6C280.649 333.28 276.862 332.96 272.489 332.64C268.222 332.32 262.942 332.16 256.649 332.16C246.729 332.16 238.195 332.427 231.049 332.96C223.902 333.6 217.982 334.187 213.289 334.72ZM290.889 264.96H302.409V257.44H290.889V264.96Z" fill="white"/>
<path d="M121.988 194.456C111.764 194.456 104.132 193.232 99.092 190.784C94.124 188.264 91.568 183.836 91.424 177.5C90.488 180.164 90.164 182.648 90.452 184.952C90.812 187.256 91.388 189.524 92.18 191.756C84.476 191.972 78.068 192.188 72.956 192.404C67.844 192.692 63.2 192.8 59.024 192.728C57.944 186.968 57.332 181.28 57.188 175.664C57.116 169.976 57.548 163.964 58.484 157.628C62.444 157.628 66.404 158.024 70.364 158.816C74.324 159.608 78.068 160.724 81.596 162.164C85.124 163.532 88.148 165.224 90.668 167.24L92.828 164.972C90.38 163.028 87.716 161.408 84.836 160.112C82.028 158.744 79.184 157.592 76.304 156.656C72.632 155.36 69.284 153.704 66.26 151.688C63.308 149.672 60.968 147.152 59.24 144.128C57.512 141.104 56.648 137.504 56.648 133.328C56.648 128.144 57.836 123.464 60.212 119.288C62.588 115.04 66.476 111.692 71.876 109.244C77.348 106.724 84.692 105.464 93.908 105.464C103.052 105.464 110.036 106.76 114.86 109.352C119.684 111.872 122.168 116.552 122.312 123.392C123.32 120.656 123.644 118.1 123.284 115.724C122.924 113.348 122.348 110.828 121.556 108.164C126.74 108.092 131.06 108.02 134.516 107.948C137.972 107.804 141.032 107.66 143.696 107.516C146.36 107.372 149.06 107.3 151.796 107.3C152.876 112.484 153.452 118.1 153.524 124.148C153.668 130.124 153.272 136.244 152.336 142.508C148.232 142.436 144.56 142.076 141.32 141.428C138.152 140.708 135.2 139.664 132.464 138.296C129.728 136.928 126.92 135.236 124.04 133.22L122.096 135.704C124.832 137.72 127.64 139.448 130.52 140.888C133.4 142.256 136.1 143.516 138.62 144.668C142.364 146.324 145.532 148.16 148.124 150.176C150.716 152.192 152.696 154.64 154.064 157.52C155.504 160.4 156.224 164 156.224 168.32C156.224 174.296 155.18 179.048 153.092 182.576C151.076 186.104 148.376 188.732 144.992 190.46C141.608 192.116 137.9 193.196 133.868 193.7C129.908 194.204 125.948 194.456 121.988 194.456ZM160.5 192.836C159.852 191.324 159.348 189.416 158.988 187.112C158.628 184.808 158.412 182.432 158.34 179.984C158.268 177.464 158.34 175.052 158.556 172.748C158.844 170.444 159.24 168.536 159.744 167.024C160.824 166.592 161.868 165.872 162.876 164.864C163.956 163.784 164.856 162.092 165.576 159.788C166.296 157.412 166.656 154.1 166.656 149.852C166.656 145.244 166.224 141.788 165.36 139.484C164.568 137.108 163.596 135.524 162.444 134.732C161.364 133.868 160.392 133.436 159.528 133.436C158.88 132.14 158.412 130.376 158.124 128.144C157.836 125.912 157.692 123.536 157.692 121.016C157.764 118.424 157.98 115.94 158.34 113.564C158.7 111.116 159.24 109.028 159.96 107.3C165.288 107.516 170.076 107.552 174.324 107.408C178.644 107.264 182.928 107.048 187.176 106.76C191.496 106.472 196.176 106.22 201.216 106.004C206.328 105.716 212.34 105.572 219.252 105.572C229.404 105.572 237.972 106.472 244.956 108.272C251.94 110 257.232 113.204 260.832 117.884C264.504 122.492 266.34 129.08 266.34 137.648C266.34 145.064 264.936 151.004 262.128 155.468C259.392 159.932 255.432 163.172 250.248 165.188C245.064 167.132 238.836 168.104 231.564 168.104C226.956 168.104 223.284 167.744 220.548 167.024C217.812 166.232 215.292 164.504 212.988 161.84L210.72 163.892C212.592 166.124 214.86 167.852 217.524 169.076C220.188 170.228 223.5 170.876 227.46 171.02C228.108 173.036 228.504 175.34 228.648 177.932C228.864 180.524 228.792 183.116 228.432 185.708C228.144 188.3 227.604 190.64 226.812 192.728C223.284 192.44 218.388 192.08 212.124 191.648C205.932 191.216 198.84 191.036 190.848 191.108C186.816 191.108 182.856 191.216 178.968 191.432C175.08 191.648 171.516 191.864 168.276 192.08C165.108 192.368 162.516 192.62 160.5 192.836ZM210.72 145.208H217.308V137.972H210.72V145.208ZM296.972 192.836C296.18 190.748 295.604 188.156 295.244 185.06C294.956 181.964 294.884 178.904 295.028 175.88C295.172 172.784 295.568 170.264 296.216 168.32C297.872 168.68 299.528 168.968 301.184 169.184C302.84 169.4 304.532 169.58 306.26 169.724L306.584 166.7C302.12 166.412 297.908 165.62 293.948 164.324C290.06 162.956 286.748 160.724 284.012 157.628C281.276 154.532 279.368 150.176 278.288 144.56C277.712 141.392 276.632 138.764 275.048 136.676C273.536 134.588 271.592 133.508 269.216 133.436C268.568 132.14 268.1 130.376 267.812 128.144C267.524 125.912 267.38 123.536 267.38 121.016C267.452 118.424 267.668 115.94 268.028 113.564C268.388 111.116 268.928 109.028 269.648 107.3C272.6 107.588 276.776 107.912 282.176 108.272C287.648 108.632 293.732 108.812 300.428 108.812C305.324 108.812 309.788 108.632 313.82 108.272C317.924 107.912 321.452 107.588 324.404 107.3C323.972 109.532 323.576 112.16 323.216 115.184C322.928 118.136 322.928 121.196 323.216 124.364C323.576 127.46 324.476 130.448 325.916 133.328C327.356 136.136 329.588 138.548 332.612 140.564L334.448 137.972C331.424 135.956 329.264 133.4 327.968 130.304C326.744 127.136 326.168 123.608 326.24 119.72C326.312 115.76 326.816 111.62 327.752 107.3C330.704 107.66 334.592 108.02 339.416 108.38C344.24 108.668 350.252 108.812 357.452 108.812C359.756 108.812 362.42 108.74 365.444 108.596C368.468 108.38 371.456 108.164 374.408 107.948C377.36 107.66 379.808 107.444 381.752 107.3C382.472 109.028 383.012 111.116 383.372 113.564C383.732 115.94 383.912 118.424 383.912 121.016C383.984 123.536 383.876 125.912 383.588 128.144C383.3 130.376 382.832 132.14 382.184 133.436C380.384 133.22 378.872 133.76 377.648 135.056C376.496 136.28 375.596 137.756 374.948 139.484C374.3 141.212 373.832 142.688 373.544 143.912C371.888 151.04 368.936 156.332 364.688 159.788C360.512 163.172 355.508 165.476 349.676 166.7L350.54 169.616C352.268 169.256 353.888 168.824 355.4 168.32C355.904 169.544 356.228 171.2 356.372 173.288C356.588 175.376 356.66 177.644 356.588 180.092C356.588 182.54 356.408 184.916 356.048 187.22C355.688 189.452 355.22 191.324 354.644 192.836C351.476 192.476 347.444 192.08 342.548 191.648C337.724 191.288 331.82 191.108 324.836 191.108C320.012 191.108 315.908 191.18 312.524 191.324C309.212 191.54 306.332 191.792 303.884 192.08C301.436 192.368 299.132 192.62 296.972 192.836Z" fill="white"/>
<path d="M129 232.5L135 227L141 232.5L135 238L143 296.798L135 308L127 296.798L135 238L129 232.5Z" fill="#FE4185"/>
<path d="M135 238L129 232.5L135 227L141 232.5L135 238ZM135 238L127 296.798L135 308L143 296.798L135 238Z" stroke="#FE4185" stroke-width="4" stroke-linecap="round"/>
</svg>
