<svg width="210" height="210" viewBox="0 0 210 210" fill="none" xmlns="http://www.w3.org/2000/svg">
<rect width="210" height="210" rx="16" fill="url(#paint0_linear_321_15)"/>
<path d="M101.398 175.72C100.545 173.48 99.8515 170.653 99.3181 167.24C98.7848 163.827 98.4648 160.307 98.3581 156.68C98.3581 152.947 98.4648 149.373 98.6781 145.96C98.9981 142.547 99.5315 139.72 100.278 137.48C101.985 136.84 103.798 135.773 105.718 134.28C107.638 132.787 109.451 130.333 111.158 126.92C112.971 123.507 114.358 118.707 115.318 112.52C116.171 107.4 116.385 103.24 115.958 100.04C115.531 96.7333 114.731 94.2267 113.558 92.52C112.491 90.7067 111.318 89.48 110.038 88.84C108.865 88.0933 107.851 87.72 106.998 87.72C106.038 85.8 105.345 83.1867 104.918 79.88C104.491 76.5733 104.278 73.0533 104.278 69.32C104.385 65.48 104.705 61.8 105.238 58.28C105.771 54.6533 106.571 51.56 107.638 49C111.691 49.4267 116.598 49.9067 122.358 50.44C128.225 50.9733 134.838 51.24 142.198 51.24C148.171 51.24 154.465 51.1333 161.078 50.92C167.798 50.7067 174.305 50.44 180.598 50.12C186.891 49.8 192.385 49.4267 197.078 49C196.438 53.0533 196.278 58.12 196.598 64.2C197.025 70.28 198.678 76.1467 201.558 81.8C201.665 75.9333 201.825 70.0667 202.038 64.2C202.358 58.2267 202.891 53.16 203.638 49C208.118 49.2133 212.331 49.5333 216.278 49.96C220.225 50.28 224.331 50.6 228.598 50.92C232.971 51.1333 237.931 51.24 243.478 51.24C247.105 51.24 251.265 51.1333 255.958 50.92C260.651 50.6 265.185 50.28 269.558 49.96C273.931 49.5333 277.451 49.2133 280.118 49C281.185 51.56 281.985 54.6533 282.518 58.28C283.051 61.8 283.318 65.48 283.318 69.32C283.425 73.0533 283.265 76.5733 282.838 79.88C282.411 83.1867 281.718 85.8 280.758 87.72C280.011 87.72 278.998 88.0933 277.718 88.84C276.545 89.48 275.425 90.7067 274.358 92.52C273.398 94.2267 272.811 96.68 272.598 99.88C272.385 102.973 272.811 107.08 273.878 112.2C275.265 118.387 276.758 123.24 278.358 126.76C280.065 130.173 281.771 132.68 283.478 134.28C285.291 135.773 287.051 136.84 288.758 137.48C289.505 139.72 289.985 142.547 290.198 145.96C290.518 149.373 290.625 152.947 290.518 156.68C290.518 160.307 290.251 163.827 289.718 167.24C289.185 170.653 288.491 173.48 287.638 175.72C283.265 175.293 277.931 174.76 271.638 174.12C265.451 173.48 257.611 173.16 248.118 173.16C239.051 173.16 230.411 173.48 222.198 174.12C214.091 174.76 207.851 175.293 203.478 175.72C203.051 173.48 202.678 170.653 202.358 167.24C202.038 163.827 201.825 160.307 201.718 156.68C201.611 152.947 201.611 149.373 201.718 145.96C201.825 142.547 202.038 139.72 202.358 137.48H207.958L206.358 119.56L196.918 146.76L165.878 133.16L163.958 137.48L181.398 145.32C183.851 146.387 186.198 147.56 188.438 148.84C190.678 150.013 192.598 151.613 194.198 153.64C195.798 155.667 196.865 158.44 197.398 161.96C198.038 165.373 197.931 169.96 197.078 175.72C195.051 175.507 192.225 175.24 188.598 174.92C184.971 174.707 180.918 174.44 176.438 174.12C172.065 173.907 167.531 173.693 162.838 173.48C158.251 173.267 153.931 173.16 149.878 173.16C138.038 173.16 128.011 173.48 119.798 174.12C111.691 174.76 105.558 175.293 101.398 175.72Z" fill="#FE4185" fill-opacity="0.19"/>
<defs>
<linearGradient id="paint0_linear_321_15" x1="105" y1="0" x2="105" y2="210" gradientUnits="userSpaceOnUse">
<stop stop-color="#2A2C31" stop-opacity="0"/>
<stop offset="1" stop-color="#2A2C31"/>
</linearGradient>
</defs>
</svg>
