<svg width="15" height="11" viewBox="0 0 15 11" fill="none" xmlns="http://www.w3.org/2000/svg">
<path fill-rule="evenodd" clip-rule="evenodd" d="M1.82655 9.36211C2.46001 9.88214 3.21381 10.2401 4.02254 10.4009C4.99196 10.5938 5.99679 10.4948 6.90996 10.1165C7.82314 9.73829 8.60364 9.09775 9.15277 8.27592C9.7019 7.45408 9.995 6.48787 9.995 5.49945C9.995 4.17403 9.46848 2.9029 8.53127 1.96569C8.42876 1.86318 8.32226 1.76558 8.21213 1.67305C8.20711 1.66884 8.20208 1.66463 8.19705 1.66043M8.19705 1.66043C7.30262 0.914958 6.17133 0.501953 4.9975 0.501953C4.00909 0.501953 3.04287 0.795051 2.22104 1.34418C1.39921 1.89332 0.758663 2.67382 0.380414 3.58699C0.00216532 4.50017 -0.0968018 5.505 0.0960278 6.47442C0.288857 7.44384 0.764823 8.33431 1.46374 9.03322C1.57959 9.14907 1.70069 9.25879 1.82655 9.36211M3.71204 4.73714C3.57634 4.9682 3.50526 5.23149 3.50625 5.49945C3.50613 5.85743 3.63446 6.2042 3.86793 6.47558C4.10139 6.74696 4.42448 6.92555 4.77846 6.9789C5.13245 7.03225 5.49382 6.9568 5.7969 6.76628C6.09997 6.57577 6.32462 6.28282 6.43 5.9407C6.43492 5.92481 6.43982 5.90896 6.44471 5.89314C6.47937 5.76528 6.49699 5.63311 6.49688 5.50008C6.49712 5.20348 6.4094 4.91346 6.24479 4.66673C6.08019 4.41999 5.84611 4.22762 5.57215 4.11395C5.40378 4.04408 5.22532 4.00588 5.04498 4.0002C4.77714 3.99225 4.51209 4.05646 4.27758 4.18611C4.04307 4.31576 3.84774 4.50608 3.71204 4.73714Z" fill="#1D9BF0"/>
<path d="M15 0.501953H12.4906C10.3344 0.501953 9.17813 0.625078 8.27313 1.72508C8.25292 1.70756 8.23258 1.69022 8.21213 1.67305C8.32226 1.76558 8.42876 1.86318 8.53127 1.96569C9.46848 2.9029 9.995 4.17403 9.995 5.49945C9.995 6.48787 9.7019 7.45408 9.15277 8.27592C8.60364 9.09775 7.82314 9.73829 6.90996 10.1165C5.99679 10.4948 4.99196 10.5938 4.02254 10.4009C3.21381 10.2401 2.46001 9.88214 1.82655 9.36211C2.59881 9.99672 3.54473 10.386 4.54247 10.4776C5.59183 10.5739 6.6448 10.3361 7.55088 9.79808C8.45697 9.26007 9.1698 8.44941 9.5875 7.48195C11.5763 7.33758 12.9563 6.1482 13.3906 4.24883C13.3906 4.24883 11.8913 4.61445 10.6219 4.24883C13.1331 3.7632 14.58 2.3507 15 0.501953Z" fill="#0064A8"/>
</svg>
