<svg width="32" height="32" viewBox="0 0 32 32" fill="none" xmlns="http://www.w3.org/2000/svg">
<rect width="32" height="32" rx="16" fill="#FF3C1F"/>
<path d="M21.85 14.375C23.5688 14.375 24.1625 16.6875 22.6 17.5C22.6625 17.75 22.6938 18 22.6938 18.2812C22.6938 20.9062 19.725 23 16.1 23C12.475 23 9.5375 20.9062 9.5375 18.2812C9.5375 18 9.5375 17.75 9.6 17.5C8.00625 16.7188 8.6 14.375 10.3188 14.375C10.7875 14.375 11.225 14.5625 11.5375 14.875C12.6313 14.125 14.1313 13.625 15.7875 13.5312L16.725 9.25C16.7875 9.09375 16.9125 8.96875 17.0688 9.03125L20.1313 9.6875C20.3188 9.3125 20.7563 9 21.225 9C21.9125 9 22.475 9.5625 22.475 10.25C22.475 10.9375 21.9125 11.5 21.225 11.5C20.5375 11.5 20.0063 10.9375 20.0063 10.2812L17.2563 9.65625L16.3813 13.5625C18.0375 13.5938 19.5375 14.0938 20.6625 14.875C20.975 14.5625 21.3813 14.375 21.85 14.375ZM12.1313 17.6562C12.1313 18.3438 12.6938 18.9062 13.3813 18.9062C14.0375 18.9062 14.6 18.3438 14.6 17.6562C14.6 16.9688 14.0375 16.4375 13.3813 16.4375C12.6938 16.4375 12.1313 16.9688 12.1313 17.6562ZM18.8188 20.5938C18.9438 20.4688 18.9438 20.2812 18.8188 20.1562C18.725 20.0625 18.5063 20.0625 18.4125 20.1562C17.5063 21.0625 14.6313 21.0625 13.7563 20.1562C13.6313 20.0625 13.4438 20.0625 13.35 20.1562C13.225 20.2812 13.225 20.4688 13.35 20.5938C14.475 21.7188 17.6938 21.7188 18.8188 20.5938ZM18.7875 18.9062C19.475 18.9062 20.0375 18.3438 20.0375 17.6562C20.0375 16.9688 19.475 16.4375 18.7875 16.4375C18.1313 16.4375 17.5688 16.9688 17.5688 17.6562C17.5688 18.3438 18.1313 18.9062 18.7875 18.9062Z" fill="white"/>
</svg>
