<svg width="28" height="28" viewBox="0 0 28 28" fill="none" xmlns="http://www.w3.org/2000/svg">
<path d="M22.71 21.29L19.31 17.9C20.407 16.5025 21.0022 14.7767 21 13C21 11.4178 20.5308 9.87103 19.6518 8.55544C18.7727 7.23985 17.5233 6.21447 16.0615 5.60897C14.5997 5.00347 12.9911 4.84504 11.4393 5.15372C9.88743 5.4624 8.46197 6.22433 7.34315 7.34315C6.22433 8.46197 5.4624 9.88743 5.15372 11.4393C4.84504 12.9911 5.00347 14.5997 5.60897 16.0615C6.21447 17.5233 7.23985 18.7727 8.55544 19.6518C9.87103 20.5308 11.4178 21 13 21C14.7767 21.0022 16.5025 20.407 17.9 19.31L21.29 22.71C21.383 22.8037 21.4936 22.8781 21.6154 22.9289C21.7373 22.9797 21.868 23.0058 22 23.0058C22.132 23.0058 22.2627 22.9797 22.3846 22.9289C22.5064 22.8781 22.617 22.8037 22.71 22.71C22.8037 22.617 22.8781 22.5064 22.9289 22.3846C22.9797 22.2627 23.0058 22.132 23.0058 22C23.0058 21.868 22.9797 21.7373 22.9289 21.6154C22.8781 21.4936 22.8037 21.383 22.71 21.29ZM7 13C7 11.8133 7.3519 10.6533 8.01119 9.66658C8.67047 8.67989 9.60755 7.91085 10.7039 7.45673C11.8003 7.0026 13.0067 6.88378 14.1705 7.11529C15.3344 7.3468 16.4035 7.91825 17.2426 8.75736C18.0818 9.59648 18.6532 10.6656 18.8847 11.8295C19.1162 12.9933 18.9974 14.1997 18.5433 15.2961C18.0892 16.3925 17.3201 17.3295 16.3334 17.9888C15.3467 18.6481 14.1867 19 13 19C11.4087 19 9.88258 18.3679 8.75736 17.2426C7.63214 16.1174 7 14.5913 7 13Z" fill="white"/>
</svg>
