<svg width="15" height="13" viewBox="0 0 15 13" fill="none" xmlns="http://www.w3.org/2000/svg">
<path d="M13.4644 3.43999C13.4735 3.57229 13.4735 3.70448 13.4735 3.83795C13.4735 7.90436 10.3778 12.5942 4.71727 12.5942V12.5919C3.04501 12.5942 1.40741 12.1152 0 11.2121C0.243164 11.2414 0.4875 11.256 0.732422 11.2566C2.11841 11.2577 3.46454 10.7929 4.55449 9.93674C3.9123 9.92461 3.28995 9.7121 2.77446 9.32892C2.25897 8.94573 1.87611 8.41104 1.67941 7.79959C2.14078 7.88866 2.61609 7.87026 3.06891 7.74651C1.63312 7.45647 0.600234 6.19506 0.600234 4.7301V4.69108C1.02824 4.92952 1.50727 5.06163 1.99699 5.07628C0.644531 4.17253 0.22793 2.37358 1.04449 0.967213C1.8171 1.91791 2.78105 2.69546 3.87373 3.24936C4.96641 3.80325 6.16339 4.1211 7.38691 4.18225C7.26496 3.65711 7.28301 3.10915 7.43926 2.59317C7.59552 2.07719 7.8845 1.61127 8.2773 1.24202C9.5168 0.076822 11.4662 0.136588 12.6313 1.37549C13.3205 1.23941 13.9814 0.98672 14.5856 0.628306C14.3559 1.34089 13.8751 1.94577 13.2328 2.33045C13.8429 2.25853 14.4386 2.09517 15 1.84588C14.587 2.46436 14.067 3.00418 13.4644 3.43999Z" fill="#1D9BF0"/>
</svg>
