<svg width="15" height="11" viewBox="0 0 15 11" fill="none" xmlns="http://www.w3.org/2000/svg">
<g clip-path="url(#clip0_3_3097)">
<path d="M14.6687 1.87158C14.5827 1.55363 14.4149 1.26376 14.1819 1.03084C13.949 0.797917 13.6592 0.630075 13.3412 0.544023C12.1772 0.226562 7.49239 0.226562 7.49239 0.226562C7.49239 0.226562 2.80735 0.236172 1.64333 0.553633C1.32537 0.639689 1.03551 0.807541 0.802595 1.04047C0.569686 1.2734 0.40186 1.56328 0.315832 1.88125C-0.0362583 3.94949 -0.17284 7.10102 0.3255 9.08652C0.411537 9.40448 0.579366 9.69435 0.812276 9.92727C1.04519 10.1602 1.33505 10.328 1.653 10.4141C2.81702 10.7315 7.50195 10.7315 7.50195 10.7315C7.50195 10.7315 12.1868 10.7315 13.3508 10.4141C13.6687 10.328 13.9586 10.1602 14.1915 9.92728C14.4245 9.69436 14.5923 9.40449 14.6783 9.08652C15.0497 7.01535 15.1641 3.86576 14.6687 1.87158Z" fill="#FF0000"/>
<path d="M6.00146 7.73014L9.88787 5.47908L6.00146 3.22803V7.73014Z" fill="white"/>
</g>
<defs>
<clipPath id="clip0_3_3097">
<rect width="15" height="10.5469" fill="white" transform="translate(0 0.226562)"/>
</clipPath>
</defs>
</svg>
